<svg width="645.994" height="633.818" xmlns="http://www.w3.org/2000/svg">
 <g>
  <title>background</title>
  <rect x="-1" y="-1" width="647.994" height="635.818" id="canvas_background" fill="none"/>
 </g>

 <g>
  <title>Layer 1</title>
  <path fill="#FFFFFF" d="m27.591,0c0,0 1.235,2.627 2.086,3.477c0.85,0.85 1.699,2.24 1.699,2.24s-2.858,2.704 -3.321,4.79c0,0 -0.309,-5.717 -0.464,-10.507z" id="svg_111"/>
  <g stroke="null" id="svg_447" fill="white">
   <path stroke="null" fill-rule="evenodd" clip-rule="evenodd" d="m440.787119,342.283096c0,-35.380955 1.541154,-70.761911 0.645765,-106.139227c-0.352729,-13.818297 -5.735916,-28.641033 -17.522491,-40.195706c-6.414241,-6.281375 -14.451036,-11.911321 -23.448338,-16.53683c-4.031964,-2.070743 -8.405803,-4.163322 -13.126945,-5.451622c-4.748275,-1.288301 -10.245421,-1.914255 -13.430835,-4.883897c4.737422,-1.255547 9.708187,-2.052547 14.505302,-3.209834c3.538143,-0.855228 12.112171,-2.904135 11.775722,-5.986594c-0.406995,-3.635628 -1.926443,-7.114767 -3.657528,-10.550235c-1.828764,-3.653824 -2.69702,-7.304009 -4.075377,-11.030619c-1.481462,-4.050504 -2.7133,-7.44958 -2.572208,-11.674769c0.130238,-3.821231 0.244197,-7.584233 -1.465182,-11.285367c-2.659034,-5.76096 -9.415151,-11.951353 -16.165841,-15.838091c-15.829392,-9.127282 -40.010321,-9.349277 -57.109537,-1.634031c-9.078702,4.094176 -16.165841,10.313683 -19.47064,17.315633c-1.698526,3.606514 -1.351223,7.274895 -1.150439,10.997865c0.260477,4.71649 -0.895389,8.399429 -3.185414,12.799303c-2.083814,3.984998 -3.369919,8.304808 -4.791688,12.41718c-0.689178,2.005236 -1.307811,4.025029 -1.812484,6.05938c-0.537233,2.18356 -1.020201,3.289898 1.476035,4.894814c3.592409,2.310935 8.628294,3.391797 13.224624,4.472659c3.217974,0.753328 8.883344,0.480383 10.505897,2.907774c-16.2798,4.996714 -31.642504,11.725719 -43.369387,20.900311c-12.562579,9.818743 -19.888489,21.973895 -22.243633,34.76228c-0.689178,3.770281 -0.938802,7.49689 -0.602353,11.289007c0.173651,1.93609 0.331023,3.883098 -0.070546,5.80827c-0.482967,2.274542 -0.944228,3.02787 -4.211042,3.482779c-4.232748,0.589561 -8.677133,0.676904 -12.985854,0.520415c-2.067535,-0.076425 -4.135069,-0.214717 -6.159191,-0.49858c-3.033469,-0.429434 -3.445891,-0.855228 -3.54357,-2.98056c-0.162798,-3.602874 1.063614,-7.19847 0.369009,-10.797706c-0.309316,-1.568524 -0.906242,-2.962363 -2.534222,-4.130568c-1.649686,-1.182762 -3.820326,-2.300017 -4.249028,-3.999555c-0.884536,-3.541007 -0.363582,-7.234863 -0.03256,-10.790427c0.423275,-4.625509 0.52638,-9.221903 0.52638,-13.851051c0,-17.785099 0,-35.570197 0,-53.355296c0,-15.263086 -0.5101,-30.562566 0.331023,-45.822013c0.314743,-5.728207 0.640339,-11.467331 0.379862,-17.199177c-0.151945,-3.257144 0.385289,-8.912565 -3.158281,-11.565591c-2.252039,-1.68862 -7.684065,-2.463784 -10.408219,-0.928013c-2.517942,1.412036 -3.217974,3.977719 -3.641249,6.033905c-1.134159,5.50985 -0.200784,11.103404 -0.113959,16.63509c0.586073,37.604548 0,75.227291 0,112.831839c0,5.877416 1.877604,11.907682 0.732591,17.766902c-0.515527,2.68214 -4.889367,3.908573 -6.099498,6.463338c-1.470609,3.115213 -0.868256,6.638023 -0.596926,9.840578c0.211637,2.347327 1.11788,5.739124 -0.868256,7.864456c-1.193852,1.273744 -3.293946,1.914255 -4.873087,2.922332c-1.921016,1.222794 -3.483877,2.693058 -4.666876,4.283417c-3.760634,5.040385 -4.818821,13.301521 2.018695,17.457565c3.114868,1.896058 6.886355,3.519171 8.020515,6.419667c0.998494,2.540208 -0.28761,5.488015 -0.179078,8.082812c0.25505,5.862859 7.917409,5.95748 15.026255,5.866499c3.424185,-0.04731 6.994887,-0.218356 10.288833,-0.89162c3.478451,-0.716936 4.021111,-2.492898 3.972271,-4.792915c-0.048839,-2.118053 -1.302384,-5.429787 0.716311,-7.285813c1.86675,-1.714095 6.76697,-1.546689 9.49655,-1.48846c3.858313,0.076425 7.716625,0.443991 11.488112,0.968045c1.351223,0.189242 2.702447,0.393041 4.021111,0.665986c1.676819,0.34573 0.83027,3.661103 0.83027,4.781997c0,7.99547 0,15.99094 0,23.98641c0.005427,17.086359 0,34.172719 0,51.259078c0,17.348387 0,34.693134 0,52.034242c0,7.59879 0.309316,15.233972 -0.233344,22.825484c-0.222491,3.111573 -0.504674,6.230425 -0.472114,9.345638c0.01628,2.198117 -0.249624,5.269659 1.671393,7.194831c2.013269,2.005236 7.217378,1.852387 10.332246,1.823273c5.280082,-0.043671 10.560163,-0.20016 15.840245,-0.262027c3.104015,-0.036393 12.49746,-0.818835 13.230051,1.757766c1.193852,4.185157 -0.200784,8.388511 0.157371,12.591864c0.531807,6.00843 7.922836,12.144235 16.106149,14.542512c10.288833,3.006035 22.525816,0.615036 30.188175,-4.636426c5.182403,-3.551925 6.810383,-8.435821 7.401882,-13.239654c0.770577,-6.25954 0.396142,-12.610061 0.55894,-18.884157c0.363582,-13.694562 -0.070546,-27.418239 -0.070546,-41.112801c0,-14.043932 0,-28.084225 0,-42.128157c0,-7.143881 0,-14.295041 0,-21.446201c0,-1.652227 -0.059693,-3.304455 -0.113959,-4.953043c-0.01628,-0.338452 -0.591499,-3.701135 -0.30389,-3.832148c-0.054266,0.087342 -0.070546,0.178324 -0.070546,0.269306c0.27133,-2.110775 1.655113,-4.094176 5.345201,-4.243386c2.962924,-0.120096 3.462171,2.591158 3.657528,4.017751c0.884536,6.459699 -0.217064,13.272407 -0.206211,19.757581c0.048839,18.789536 0.217064,37.575433 0.341876,56.36497c0.119385,17.741427 0.336449,35.479216 -0.151945,53.217004c-0.195358,7.34768 0.982215,13.177786 9.724467,18.163582c8.129047,4.632787 19.107058,5.040385 28.679581,2.074382c7.483281,-2.318213 12.052478,-6.419667 13.588206,-11.82034c0.835696,-2.98056 1.014774,-6.033905 1.253545,-9.058136c0.124812,-1.564885 0.265903,-3.133409 0.466688,-4.694655c0.119385,-1.011716 -0.379862,-1.896058 1.291531,-2.13625c1.06904,-0.156488 2.159787,-0.269306 3.25596,-0.353009c8.704266,-0.665986 17.489932,0.214717 26.215904,-0.131014c1.877604,-0.072785 3.755207,-0.19652 5.611104,-0.451269c1.009348,-0.138292 1.991562,-0.309338 2.962924,-0.542251c0.113959,-1.033552 0.217064,-2.070743 0.314743,-3.107934c0.347302,-3.864902 0.564366,-7.733443 0.700031,-11.601984c0.548087,-15.776223 -0.037986,-31.570643 -0.037986,-47.354144c0.005427,-15.983661 0.005427,-31.970962 0.005427,-47.954623m-255.343232,-72.687083c-4.08623,-2.019793 -4.574624,-11.871289 0.493821,-13.421617c3.809473,1.459346 4.145922,12.424458 -0.493821,13.421617zm193.344328,-17.67956c0.363582,5.41159 0.873683,10.841377 0.466688,16.260246c-0.141092,1.979761 -0.227917,4.232468 -1.454329,6.077576c-1.166719,1.757766 -4.818821,1.655867 -7.249937,1.699538c-9.664774,0.163767 -19.394668,-0.476744 -29.086576,-0.433073c-12.71995,0.058228 -25.45618,0.163767 -38.170704,-0.236552c-2.990057,-0.090982 -5.963833,-0.211077 -8.93761,-0.367566c-2.604768,-0.134653 -2.284599,-2.944167 -2.539649,-4.516331c-0.721738,-4.294335 -0.776004,-8.632342 -0.710885,-12.948513c0.124812,-9.050857 0.217064,-18.083519 0.124812,-27.141654c-0.037986,-4.236107 -0.021706,-8.475853 0.293036,-12.708321c0.146518,-1.997958 0.363582,-3.992276 0.683752,-5.979316c0.217064,-1.386561 0.743444,-0.986241 2.566782,-1.04083c1.671393,-0.054589 3.342786,-0.09826 5.014178,-0.141931c11.591217,-0.276584 23.187861,-0.323895 34.784505,-0.305698c9.067848,0.014557 18.119417,0.076425 27.176412,0.152849c4.319574,0.040032 8.736826,-0.29842 13.029266,-0.120096c3.836606,0.160128 4.927353,2.522012 4.905646,4.763801c-0.037986,2.132611 -0.851976,4.199714 -1.269824,6.303211c-0.580646,2.940528 -0.233344,6.066658 -0.265903,9.029022c-0.043413,7.220306 0.151945,14.440612 0.640339,21.65364m-3.418758,39.613423c-11.846268,0.010918 -19.812516,-0.756968 -17.571331,-10.473811c2.572208,-3.635628 11.65091,-1.277383 18.542692,-2.292738c4.791688,1.972483 2.946644,10.768592 -0.971361,12.766549m-46.87497,-8.83978c-3.250533,1.146369 -2.246612,4.66918 -3.418758,6.616188c-0.938802,1.553967 -2.74586,1.906976 -5.068444,1.83783c-3.955991,-0.116457 -7.911983,-0.05095 -11.862547,0.007279c-3.125722,0.043671 -6.251443,0.065507 -9.377165,-0.101899c-3.28852,-0.178324 -5.784756,-0.032753 -6.815809,-2.350967c-1.220985,-2.762204 -1.535728,-7.078375 0.895389,-9.607665c11.113677,0.938931 22.270766,-2.103496 32.874342,0.913456c4.466092,1.277383 10.516751,-1.164565 15.205333,-1.386561c4.878513,-0.232913 10.413645,-0.229274 13.924655,2.43467c-0.895389,3.915851 0.824843,7.900849 -3.418758,9.822382c-5.567692,0.684182 -11.88968,0.804278 -17.191469,-0.702379c-2.127227,-0.600479 -4.107936,-1.535771 -5.263802,-2.896857c-0.265903,-1.448428 2.479956,-3.792116 -0.482967,-4.585477m-36.124876,33.07366c3.54357,-2.318213 8.025941,1.997958 11.422993,2.554766c2.583062,0.422155 4.976192,0.360287 7.119699,1.579442c2.382277,1.361086 4.954486,1.997958 7.879423,2.711254c2.463676,0.604118 4.954486,1.19004 7.315057,1.972483c2.843538,0.946209 3.858313,1.34289 3.836606,3.486418c-0.048839,4.166961 -0.065119,8.333922 -0.081399,12.500883c-0.043413,17.271962 -0.927949,34.714969 0.282183,51.961456c0.249624,3.504614 0.629486,7.376795 -1.948149,10.57571c-1.020201,1.259186 -4.569197,0.611397 -6.609599,0.615036c-3.179988,0.010918 -6.359975,0.094621 -9.545389,0.14921c-5.670797,0.094621 -11.406713,0.152849 -17.039524,-0.382123c-1.779925,-0.167406 -2.610195,0.138292 -2.669887,-1.197319c-0.048839,-0.906178 -0.086826,-1.812355 -0.124812,-2.725811c-0.103105,-2.179921 -0.189931,-4.367121 -0.282183,-6.550681c-0.662045,-17.097277 -1.058187,-34.201833 -0.889962,-51.306388c0.043413,-4.807472 0.135665,-9.622222 0.28761,-14.426055c0.075972,-2.223592 0.037986,-4.436267 -0.054266,-6.659859c-0.054266,-1.168205 -0.672898,-4.054144 1.1016,-4.858422m41.014242,-142.757533c3.104015,-2.067104 13.870389,-1.768684 17.088363,0c0.83027,8.29389 1.107026,16.616894 0.640339,24.92898c-0.124812,2.143528 -0.298463,4.283417 -0.531807,6.423307c-0.179078,1.655867 -2.176067,2.045268 -4.449812,2.398277c-3.836606,0.604118 -8.899624,0.54589 -12.264116,-1.008077c-1.655113,-11.059733 -1.063614,-21.791932 -0.482967,-32.742487m34.659694,31.759884c-2.284599,2.500177 -10.864053,2.565683 -13.669605,0.327534c-1.655113,-5.80827 -0.602353,-12.053253 -0.141092,-17.905194c0.244197,-3.020592 -0.472114,-5.739124 -1.188425,-8.708766c-0.499247,-2.081661 -0.141092,-4.210632 3.217974,-5.025828c2.593915,-0.629593 5.632811,-0.254749 8.058501,0.516776c1.264398,0.400319 2.45825,0.94257 3.397052,1.641309c1.872177,1.379282 1.041907,2.864103 0.851976,4.600034c-0.862829,8.173794 -0.168225,16.373063 -0.52638,24.554136m11.233062,-26.195445c-1.438049,6.823626 0.569793,14.160389 0.092252,21.071357c-0.124812,1.881501 0.141092,5.371558 -2.007842,6.856379c-2.018695,1.393839 -4.569197,-0.440351 -5.242096,-1.641309c-2.816405,-5.007632 -1.123306,-11.42366 -0.770577,-16.627812c0.086826,-1.19368 0.157371,-2.390999 0.135665,-3.588317c-0.01628,-1.684981 -1.334944,-3.431829 -1.003921,-5.087695c0.721738,-3.482779 6.707277,-4.498134 8.796518,-0.982602m-21.006368,-78.91023c1.579141,0.440351 2.403984,1.728652 3.912579,2.292738c1.893883,0.713296 3.690088,0.454908 5.529705,1.452068c3.299373,1.772323 6.251443,3.981358 8.622867,6.328686c2.72958,2.700336 10.554737,11.656573 4.889367,14.480644c-4.145922,-2.118053 -7.651506,-4.825668 -12.627698,-6.11033c-2.973777,-0.767885 -6.00182,-0.928013 -9.138394,-0.575004c-2.572208,0.287502 -9.295766,1.452068 -10.32682,-0.880703c-1.741939,-3.937687 0.151945,-8.173794 -0.27133,-12.191545c-0.179078,-1.644949 -2.13808,-3.373601 -0.01628,-4.51997c2.648181,-1.430232 6.51192,-1.095419 9.426004,-0.276584m-20.496268,0.986241c0.564366,-1.826912 3.185414,-3.544646 5.893288,-2.132611c2.365998,1.233712 2.2032,3.453665 2.192346,5.251463c-0.048839,5.750042 -0.580646,11.449134 -1.248118,17.18098c-6.137485,1.677702 -6.582466,-3.628349 -6.636732,-6.375996c-0.037986,-2.219953 0.168225,-4.443545 0.276757,-6.663498c0.108532,-2.256346 -1.134159,-5.138645 -0.477541,-7.260338m-33.205365,15.059287c1.519448,-2.303656 0.998494,-4.261582 3.55985,-6.346882c2.593915,-2.099857 6.012673,-3.672021 8.503482,-5.826467c1.557434,-1.353807 6.050659,-2.398277 8.438363,-3.238948c3.369919,-1.19004 7.092566,-1.78688 10.2617,0.018196c-1.058187,3.468222 -0.803137,7.056539 -0.705458,10.572071c0.048839,1.568524 0.075972,3.133409 -0.054266,4.701933c-0.097679,1.273744 0.374435,1.710456 -1.698526,2.001597c-1.459755,0.207438 -2.941217,0.29842 -4.422679,0.331173c-4.981619,0.105539 -10.348526,-0.622315 -15.091374,0.731493c-4.270734,1.222794 -6.598745,4.487216 -11.222209,5.240545c-3.375345,-3.322651 0.987641,-5.975677 2.431117,-8.184712m4.400973,47.801774c-5.69793,-1.175483 -19.893915,-2.736729 -15.981337,-8.628702c0.933375,-1.408396 2.268319,-2.58024 2.615621,-4.141486c0.428701,-1.947008 0.075972,-3.901294 1.058187,-5.786435c0.884536,-1.684981 2.328011,-3.198916 3.179988,-4.887536c1.058187,-2.110775 1.38921,-4.410792 2.143507,-6.572516c1.790778,-5.102253 6.886355,-10.317322 14.966563,-11.809422c4.775408,-0.884342 10.245421,-0.6951 14.92315,0.356648c3.749781,0.84431 7.401882,5.080417 11.645483,3.92313c3.733501,-1.008077 5.383187,-3.588317 9.529109,-4.330728c4.650596,-0.833392 9.974091,-0.89162 14.630113,-0.072785c4.406399,0.778803 5.312641,3.391797 9.040715,4.650983c4.536638,1.535771 5.366907,7.50053 6.571612,10.510204c1.470609,3.704774 3.945138,6.794512 4.721142,10.666692c0.396142,1.947008 0.971361,3.803034 2.083814,5.626307c1.302384,2.132611 2.740433,4.348924 0.889962,6.557959c-9.615935,2.609355 -19.427228,4.923928 -29.623809,6.270457c-17.994605,2.387359 -34.990716,1.262826 -52.393822,-2.33277m-0.982215,12.773828c1.606274,-0.083703 2.403984,0.571365 3.690088,1.037191c2.051255,0.74605 3.473024,-0.786082 4.911073,-1.612195c3.641249,-2.092579 8.031368,-3.584678 12.399781,-1.393839c1.161292,8.515885 0.482967,22.588931 0,31.104816c-1.893883,1.422953 -5.551412,1.477542 -8.12362,1.179123c-1.443476,-0.167406 -3.00091,-0.491301 -4.08623,-1.179123c-1.090747,-1.200958 -0.249624,-2.645747 -0.976788,-3.930409c-1.91559,2.398277 -4.520358,5.819188 -10.256274,4.585477c-2.17064,-4.902093 -1.047334,-10.470172 -0.803137,-15.499639c0.124812,-2.747647 0.108532,-5.466179 -0.28761,-8.202908c-0.336449,-2.369163 -0.336449,-5.080417 3.532717,-6.088494m-33.682906,17.352026c4.726569,1.863305 1.682246,7.384073 1.150439,10.153555c-0.157371,0.811557 0.28761,1.848748 -0.906242,2.212674c-1.253545,0.382123 -2.604768,0.622315 -3.961418,0.79336c-2.642754,0.331173 -6.028953,0.538612 -8.481776,-0.389402c0.081399,-5.648143 6.549906,-9.767793 12.198997,-12.770188m-22.949091,40.599664c-0.027133,-6.80543 0.971361,-14.105799 4.688582,-20.492713c0.689178,-1.19004 1.508595,-2.369163 2.631901,-3.409993c2.528796,0.029114 5.046738,-0.058228 7.56468,-0.131014c5.041311,-0.14921 10.305113,-0.403959 15.265026,0.371205c2.843538,0.443991 2.214053,1.561246 2.376851,3.340847c0.189931,2.008875 0.325596,4.017751 0.417848,6.026626c0.189931,4.1706 0.227917,8.3412 0.200784,12.5118c-0.065119,8.3412 -0.423275,16.682401 -0.439555,25.02724c-4.856807,-0.826114 -8.470922,-3.653824 -12.095891,-5.782796c-2.219479,-1.306497 -3.52729,-1.746848 -6.262296,-2.198117c-2.47453,-0.407598 -4.422679,-1.550328 -6.685571,-2.270903c-1.942723,-0.618675 -4.547491,0.138292 -6.191751,-0.880703c-1.286104,-0.79336 -1.486888,-2.281821 -1.633407,-3.369961c-0.385289,-2.915053 0.179078,-5.826467 0.162798,-8.74152m-58.097179,1.310136c0.754297,-5.520768 9.73532,-5.695453 17.082937,-3.271701c1.242691,2.372802 1.06904,5.047664 1.08532,7.522365c0.005427,1.473903 0.010853,2.958724 0.233344,4.425349c0.179078,1.24099 -1.047334,1.765045 -2.555929,2.427391c-4.748275,2.0853 -12.074185,2.72945 -13.897522,6.90369c-1.986136,-3.191637 -2.555929,-13.512599 -1.948149,-18.007094m17.576757,52.387251c-4.238175,1.106337 -9.659348,1.357447 -14.038614,0.465826c-3.266813,-0.662347 -2.702447,-1.997958 -2.859818,-4.046865c-0.151945,-2.070743 -0.244197,-4.141486 -0.320169,-6.212229c-0.25505,-7.667936 0.130238,-15.379543 0.607779,-22.952858c1.948149,0.367566 2.859818,1.513935 3.918005,2.558405c1.34037,1.324693 3.190841,1.917894 5.480866,2.274542c2.007842,0.312977 5.887861,0.462187 6.49564,2.005236c0.645765,1.634031 0.982215,3.329929 1.199279,5.01491c0.873683,6.95464 -0.168225,13.942032 -0.482967,20.893033m8.791092,-14.407859c-5.470013,-3.504614 -3.912579,-13.250572 2.924937,-15.714356c-3.972271,-4.257943 -15.927071,1.48846 -20.0133,-2.947806c-0.369009,-4.090536 12.540872,-3.282619 15.95963,-3.191637c9.686481,0.265667 19.438081,-0.003639 29.097429,0.505858c16.491437,0.862506 34.095327,6.943722 35.500817,19.382737c-3.049749,2.096218 -8.10734,2.045268 -12.133877,2.001597c-5.45916,-0.061868 -10.918319,-0.029114 -16.366625,-0.003639c-11.656337,0.058228 -23.3181,0.105539 -34.96901,-0.032753m63.469513,174.193522c-8.932183,1.728652 -19.26443,0.79336 -28.386544,0.403959c-1.725659,-0.076425 -1.828764,0.262027 -2.078388,-1.084502c-0.184504,-1.018995 -0.352729,-2.03799 -0.499247,-3.056984c-0.293036,-2.074382 -0.504674,-4.156043 -0.656619,-6.234065c-0.341876,-4.650983 -0.390715,-9.309245 -0.352729,-13.963868c0.141092,-18.411053 0.23877,-36.818466 0.23877,-55.229518c0,-18.625769 0,-37.247899 0,-55.873669c0,-7.478694 -0.146518,-14.957388 -0.070546,-22.439721c0.01628,-2.663944 0.054266,-5.367919 0.624059,-8.010027c0.179078,-0.800639 0.374435,-1.666784 0.949655,-2.394638c0.689178,-0.873424 4.118789,-0.585922 5.45916,-0.640511c8.1399,-0.353009 17.310854,-1.011716 25.255396,0.553169c0.195358,7.471415 0.341876,14.942831 0.461261,22.414246c0.249624,16.081922 0.347302,32.167482 0.369009,48.253043c0.005427,16.565944 -0.081399,33.131888 -0.222491,49.697832c-0.065119,7.922685 -0.200784,15.834451 0.233344,23.749857c0.434128,7.933602 1.020201,16.023693 -1.32409,23.855396m2.924937,-247.535673c0.092252,1.666784 1.35665,5.85922 -2.100094,6.474256c-4.379266,0.786082 -4.368413,-3.628349 -4.362986,-5.382476c0.021706,-2.944167 -0.01628,-5.837385 -0.184504,-8.777912c-0.151945,-2.747647 0.499247,-5.477097 5.182403,-6.066658c3.51101,2.744007 1.155866,7.89357 1.465182,13.752791m4.395546,5.236905c0.515527,-5.236905 -0.955082,-10.462893 -0.808563,-15.699799c0.113959,-3.810313 1.432622,-9.269213 8.384097,-9.946117c5.480866,-0.534972 3.01719,6.787233 2.751286,8.625063c-0.84655,5.793713 2.659034,12.045974 -0.55894,17.67956c-2.642754,1.470264 -8.118193,1.150008 -9.76788,-0.658707m38.572272,265.218873c-5.947554,4.301614 -11.330741,8.898008 -21.1149,7.722525c-11.444699,-1.375643 -16.355772,-8.723323 -16.844166,-15.725273c-0.591499,-8.432182 0.298463,-16.88256 0.352729,-25.318382c0.059693,-8.515885 -1.014774,-17.155505 0.466688,-25.634998c0.25505,-1.481182 0,-3.806673 2.414837,-4.097815c2.908658,-0.34937 5.866155,-0.476744 8.818225,-0.509497c6.24059,-0.065507 12.49746,0.360287 18.732623,0.109178c3.261387,-0.131014 5.334348,-0.74241 6.935195,1.663145c1.486888,2.230871 1.584567,4.898454 1.638833,7.30037c0.146518,5.855581 -0.444981,11.732997 -0.423275,17.595857c0.03256,8.330283 0.065119,16.656926 -0.233344,24.983569c-0.135665,3.97044 -0.347302,7.94452 -0.743444,11.911321m8.785665,-147.670543c-4.607183,-0.265667 -8.66628,-1.706816 -12.73623,-3.056984c-2.148934,-0.713296 -4.238175,-1.372004 -6.604172,-1.695898c-2.816405,-0.382123 -4.216468,-1.321054 -6.484787,-2.376441c-1.709379,-0.797 -3.717221,-0.818835 -5.69793,-1.000798c-2.572208,-0.240192 -4.764555,-1.29194 -6.908062,-2.201757c-1.807058,-0.760607 -3.646675,-1.528492 -5.725063,-1.917894c-2.034975,-0.385762 -1.665966,-2.092579 -1.89931,-3.460943c-0.423275,-2.562044 -0.727164,-5.16412 -0.439555,-7.744361c0.119385,-1.124534 0.352729,-2.256346 0.889962,-3.32629c0.895389,-1.757766 4.482372,-1.09178 6.918915,-1.124534c11.846268,-0.163767 23.681682,-0.39668 35.533376,-0.527694c11.14081,-0.123735 22.384725,-0.385762 33.482121,0.29842c3.158281,0.19652 7.776318,-1.139091 10.044636,0.898899c2.290025,2.048907 0.586073,6.878215 0.645765,9.43662c0.065119,2.976921 0.244197,6.015709 -0.499247,8.967154c-4.85138,0.957127 -8.161606,3.948605 -13.371142,4.22155c-4.862234,0.254749 -7.825157,3.104295 -12.280396,4.083258c-4.563771,0.99352 -10.142315,0.797 -14.868884,0.527694m39.54906,80.544261c-3.060602,1.513935 -9.518256,0.505858 -12.947867,0.294781c-2.284599,-0.141931 -4.563771,-0.305698 -6.853796,-0.338452c-1.693099,-0.021836 -2.089241,0.422155 -2.490809,-0.898899c-0.390715,-1.295579 -0.624059,-2.605715 -0.770577,-3.92313c-0.553513,-5.26602 0.113959,-10.586628 0.113959,-15.859926c0,-5.287855 -0.010853,-10.57935 -0.01628,-15.867205c-0.005427,-10.637578 -0.021706,-21.282434 -0.005427,-31.923651c0,-2.365524 0.005427,-4.731047 0.010853,-7.096571c0.010853,-1.524853 -0.27133,-1.965204 1.720232,-2.765843c1.313237,-0.531333 2.707873,-0.975324 4.113363,-1.393839c2.995483,-0.898899 6.088645,-1.670424 8.991876,-2.711254c2.604768,-0.935292 4.911073,-2.98056 8.129047,-1.98704c2.290025,2.43103 1.703952,5.629946 1.524875,8.359397c-0.217064,3.457304 -0.065119,6.936443 -0.065119,10.401026c0,7.642461 0,15.284922 0,22.927383c0,7.806228 0,15.616095 0,23.418684c0,3.712052 -0.119385,7.435023 0.021706,11.147075c0.081399,2.088939 1.557434,6.718087 -1.476035,8.217465m0.976788,74.655926c-9.246926,1.743209 -17.565904,-2.409195 -22.737454,-7.191192c-1.291531,-1.19368 -0.824843,-3.082459 -0.895389,-4.530888c-0.081399,-1.98704 -0.151945,-3.97408 -0.200784,-5.968398c-0.103105,-3.788477 -0.146518,-7.569676 -0.162798,-11.358153c-0.037986,-7.718886 0.043413,-15.437771 0.070546,-23.156657c0.010853,-3.741167 -0.27133,-7.467776 -0.320169,-11.201664c-0.01628,-1.59036 0.081399,-3.187998 0.553513,-4.745604c0.754297,-2.456505 1.714806,-2.885939 5.437453,-2.951446c4.411826,-0.076425 9.691907,1.029913 13.870389,-0.283863c2.094668,-0.662347 3.983124,2.281821 4.34128,3.115213c2.110947,4.847504 0.938802,10.408304 0.656619,15.372264c-0.369009,6.638023 -0.021706,13.290604 -0.25505,19.932266c-0.065119,1.947008 -0.765151,5.568079 1.600847,7.096571c3.321079,2.147168 8.324404,-0.236552 11.716029,1.63767c2.724153,12.107842 -0.651192,21.781014 -13.675032,24.23388m52.730271,-30.125854c-10.484191,0.393041 -21.011795,0.633232 -31.512266,0.440351c-2.420264,-0.043671 -4.845954,-0.112817 -7.255364,-0.236552c-1.074467,-0.054589 -2.148934,-0.120096 -3.228827,-0.20016c-0.493821,-0.949849 -0.851976,-1.932451 -1.112453,-2.92961c-1.139586,-4.334367 -0.347302,-8.745159 -0.347302,-13.115919c0,-18.487477 0.005427,-36.982233 0,-55.473349c-0.005427,-37.910246 -0.048839,-75.816853 -0.059693,-113.727099c-0.005427,-26.981527 0,-53.966693 0.059693,-80.951859c4.151349,-1.830551 9.773306,2.380081 12.546299,3.952244c4.661449,2.649386 9.035289,5.407951 12.844762,8.628702c7.00574,5.917448 11.911387,12.657371 15.460383,19.797613c6.539053,13.199622 5.073871,28.298941 4.623463,41.993504c-1.188425,35.384595 -0.553513,70.798303 -0.553513,106.190176c0,14.484283 0,28.968567 0,43.449211c0,7.005589 -0.081399,14.007539 0.119385,21.00585c0.195358,7.060178 0.488394,14.222256 -1.584567,21.176896" id="svg_6"/>
   <path stroke="null" fill-rule="evenodd" clip-rule="evenodd" d="m322.633759,128.148617c-7.857717,0.167406 -14.749499,4.731047 -11.460979,10.13172c2.783846,4.57092 11.352447,7.271256 17.837234,4.352564c9.22522,-4.156043 5.101004,-14.731753 -6.376255,-14.484283" id="svg_7"/>
   <path stroke="null" fill-rule="evenodd" clip-rule="evenodd" d="m363.165034,143.862973c11.102823,-0.89162 14.212265,-12.573668 3.397052,-15.412296c-7.103419,-1.863305 -16.24724,1.313775 -17.072083,6.572516c-0.78143,5.091335 6.110352,9.447538 13.675032,8.83978" id="svg_8"/>
   <path stroke="null" fill-rule="evenodd" clip-rule="evenodd" d="m361.211458,159.908501c-0.374435,-4.043226 -7.125126,-5.568079 -7.814304,-9.498487c-5.383187,-1.717734 -5.990966,-6.874576 -12.204423,-7.857178c-5.801035,5.822827 -14.461889,9.727761 -17.576757,17.355665c9.279486,1.462985 27.366343,1.659506 37.595484,0m-7.814304,-4.254303c0.352729,3.457304 -5.524279,2.176282 -6.343695,0.327534c0.124812,-1.568524 5.491719,-1.171844 6.343695,-0.327534zm-22.460697,1.306497c0,-1.88514 2.219479,-1.215515 4.395546,-1.310136c0.499247,1.68862 -2.924937,1.976122 -4.395546,1.310136m4.889367,-1.306497c1.014774,-3.02787 3.2234,-5.255102 7.808877,-5.895613c1.855897,1.157287 2.534222,3.104295 2.924937,5.240545c-2.800126,1.557606 -6.685571,1.270104 -10.733815,0.655068" id="svg_9"/>
   <path stroke="null" fill-rule="evenodd" clip-rule="evenodd" d="m373.904275,233.905721c-0.092252,-3.988637 0.569793,-8.010027 -0.037986,-11.987746c-0.249624,-1.623113 -0.754297,-3.268062 -1.91559,-4.709212c-2.528796,-0.105539 -5.046738,-0.203799 -7.559254,-0.287502c-10.956305,-0.367566 -21.842065,0.302059 -32.754957,0.032753c-5.556838,-0.138292 -11.222209,-0.534972 -16.751914,0.036393c-2.040402,0.211077 -5.942127,0.440351 -5.893288,2.023433c0.054266,1.73957 0.059693,3.482779 0.043413,5.222348c-0.059693,7.609708 -0.461261,15.219415 -0.065119,22.829123c0.092252,1.805077 0.233344,3.610153 0.444981,5.404312c0.244197,1.950647 -0.379862,3.329929 2.767566,3.690217c5.545985,0.629593 11.265621,0.542251 16.871299,0.476744c9.198087,-0.105539 18.238802,0.058228 27.415183,0.272945c3.825753,0.094621 15.981337,1.251908 17.500785,-2.209035c1.139586,-2.598437 0.070546,-5.706371 -0.309316,-8.3412c-0.596926,-4.152404 0.331023,-8.290251 0.244197,-12.453572m-27.344637,18.989696c-8.839931,-0.018196 -17.728702,0.283863 -26.546927,-0.29842c-1.790778,-0.116457 -4.129643,0.189242 -4.406399,-1.164565c-0.233344,-1.175483 -0.331023,-2.358245 -0.358156,-3.548285c-0.092252,-3.046067 0.211637,-6.095772 0.396142,-9.141839c0.157371,-2.711254 0.195358,-5.386115 -0.168225,-8.090091c-0.352729,-2.638469 -1.014774,-5.440704 -0.059693,-8.050059c0.461261,-1.259186 0.727164,-2.125332 2.772993,-2.114414c2.414837,0.018196 4.835101,0.007279 7.255364,-0.025475c4.558344,-0.05095 9.111261,-0.14921 13.675032,-0.211077c8.536042,-0.120096 17.131776,-0.152849 25.618978,0.593201c2.523369,0.225635 2.827259,0.080064 3.028043,1.790519c0.168225,1.357447 0.249624,2.718533 0.30389,4.083258c0.108532,2.696697 0.070546,5.397033 0.01628,8.090091c-0.103105,5.062221 -0.331023,10.146277 0.233344,15.19758c0.184504,1.535771 0.276757,1.721373 -2.024122,2.274542c-2.083814,0.502219 -4.303294,0.6951 -6.490213,0.771525c-4.422679,0.156488 -8.829078,-0.145571 -13.24633,-0.156488" id="svg_10"/>
   <path stroke="null" fill-rule="evenodd" clip-rule="evenodd" d="m338.262367,238.818731c-0.065119,-5.426147 0.113959,-9.836939 0,-14.411498c-1.812484,-1.455707 -6.218884,-1.248269 -8.525188,-0.582283c-3.23968,0.928013 -1.948149,6.383275 -2.094668,8.497689c-0.141092,2.198117 -1.6117,6.052101 1.937296,7.24942c2.447397,0.826114 6.956901,0.99352 8.68256,-0.753328" id="svg_11"/>
   <path stroke="null" fill-rule="evenodd" clip-rule="evenodd" d="m359.257882,235.543391c0.021706,-0.20016 0.070546,-0.385762 0.488394,-0.327534c-0.260477,-2.558405 -5.225816,-1.957926 -6.842942,-3.599235c1.394636,-1.797798 6.229737,-1.277383 7.814304,-2.951446c-4.61261,-6.30685 -22.911105,-3.701135 -13.186638,3.27534c-9.056995,4.705572 7.770891,8.694209 11.726882,3.602874" id="svg_12"/>
   <path stroke="null" fill-rule="evenodd" clip-rule="evenodd" d="m360.23467,243.728103c-3.076882,-1.135451 -7.206525,-0.593201 -10.56559,-0.862506c-1.503168,-0.120096 -3.066029,-0.855228 -4.417252,-0.585922c-1.497742,0.29842 -3.066029,0.411237 -4.623463,0.469465c-5.69793,0.203799 -14.830898,-0.807917 -17.012391,3.926769c6.490213,4.749244 28.364838,3.515532 37.10709,0.982602c-0.189931,-1.302858 0.450408,-3.140688 -0.488394,-3.930409" id="svg_13"/>
  </g>
 </g>
</svg>