<svg width="30" height="30" xmlns="http://www.w3.org/2000/svg" xmlns:xlink="http://www.w3.org/1999/xlink">
 <defs>
  <filter x="-0.030403" y="-2.261408" width="1.060807" height="5.522816" color-interpolation-filters="sRGB" id="filter3655">
   <feGaussianBlur id="feGaussianBlur3657" stdDeviation="5.65352"/>
  </filter>
  <filter x="-0.574092" y="-0.574092" width="2.148184" height="2.148184" color-interpolation-filters="sRGB" id="filter6061">
   <feGaussianBlur id="feGaussianBlur6063" stdDeviation="0.906126"/>
  </filter>
  <linearGradient id="linearGradient3608">
   <stop id="stop3610" offset="0" stop-color="#81ccfb"/>
   <stop id="stop3618" offset="0.3" stop-color="#ffffff"/>
   <stop id="stop3616" offset="0.7" stop-color="#ffffff"/>
   <stop id="stop3612" offset="1" stop-color="#81ccfb"/>
  </linearGradient>
  <linearGradient x1="0.010228" y1="0.00092" x2="0.002084" y2="0.022587" id="svg_55" xlink:href="#linearGradient3608"/>
 </defs>
 <g stroke="null">
  <title>background</title>
  <rect x="-1" y="-1" width="32" height="32" id="canvas_background" fill="none" stroke="null"/>
 </g>
 <g stroke="null">
  <title>Layer 1</title>
  <g stroke="null" id="svg_50" fill="url(#svg_55)" stroke-width="6">
   <g stroke="null" id="svg_26"/>
   <path stroke="null" d="m26.345987,24.504659c2.093465,2.021569 1.125741,4.346289 -0.913561,2.377021l-25.191384,-24.326261l-0.66566,-0.642799c0,0 0.018236,-1.235628 0.121898,-1.511893c0.103664,-0.276263 0.791664,-0.865127 0.791664,-0.865127l0.665659,0.642797l25.191384,24.326264z" id="svg_27" filter="url(#filter3655)" stroke-width="6" fill="#ffffff" opacity="0.7"/>
   <path stroke="null" d="m26.001716,25.42575l-0.210822,0.548545l-25.624668,-24.744666c0,0 -0.114122,-0.109951 -0.010448,-0.38619c0.103694,-0.276286 0.221268,-0.162355 0.221268,-0.162355l25.62467,24.744666z" id="svg_28" stroke-width="6" fill="#ffffff"/>
   <path stroke="null" d="m1.035951,1.317362l-0.210822,0.548543l-0.658904,-0.636275c0,0 -0.114122,-0.109951 -0.010448,-0.38619c0.103694,-0.276286 0.221268,-0.162355 0.221268,-0.162355l0.658905,0.636277z" id="svg_29" stroke-width="6" fill="#ffffff"/>
   <path stroke="null" d="m30.391847,29.14607c0.073432,0.070911 0.019167,0.419532 -0.119873,0.781311c-0.139042,0.361776 -0.308494,0.595249 -0.381926,0.524338l-0.38391,-0.370727c-0.003458,-0.003338 -0.006812,-0.008755 -0.009718,-0.013295c-0.001271,-0.000856 -0.002324,-0.002622 -0.003607,-0.003479c-0.006396,-0.004443 -0.012987,-0.008628 -0.019121,-0.014552l-0.949863,-0.917243c-0.07343,-0.070909 -0.097955,-0.22096 -0.053222,-0.337357l0.34039,-0.885669c0.044735,-0.116397 0.141199,-0.15353 0.214631,-0.08262l0.949863,0.917241c0.006093,0.005889 0.011537,0.013346 0.016929,0.020257c0.005315,0.002088 0.010926,0.006639 0.015516,0.011073l0.38391,0.370724l0.000002,-0.000002z" id="svg_30" fill="#ffffff"/>
   <rect stroke="null" width="25.540682" height="10.497643" x="-713.225507" y="1009.076216" transform="matrix(0.057676683642094405,0.05569594902814154,-0.03513694895803586,0.09142392061641039,102.74137257504945,-27.24387703097508) " id="svg_31" fill="#ffffff"/>
   <rect stroke="null" width="13.000721" height="14.285714" rx="2.298097" ry="2.298097" x="678.598767" y="1007.182601" transform="matrix(-0.057676683642094405,-0.05569594902814154,-0.03513694895803586,0.09142392061641039,102.74137257504945,-27.24387703097508) " id="svg_32" fill="#ffffff"/>
   <path stroke="null" d="m26.307875,25.202351c0.07343,0.070909 0.096857,0.22382 0.052122,0.340216l-0.340389,0.885667c-0.044735,0.116397 -0.140103,0.150673 -0.213534,0.079765l-0.812879,-0.784964c-0.073432,-0.070911 -0.097957,-0.220963 -0.053222,-0.337359l1.036004,-0.503823l0.331899,0.320498z" id="svg_33" fill="#ffffff"/>
   <g stroke="null" transform="matrix(-0.057676683642094405,-0.05569594902814154,-0.03513694895803586,0.09142392061641039,112.31035496077027,-70.92267257745748) " id="svg_36">
    <path stroke="null" d="m577.011347,1429.513799c-1.39165,0.00004 -1.46875,1.5 -1.46875,1.5l0,10.9375c0,0 0.0771,1.49996 1.46875,1.5c1.39131,0.00004 1.46875,-1.5 1.46875,-1.5l0,-10.9375c0,0 -0.0774,-1.50004 -1.46875,-1.5z" id="svg_34" fill="#ffffff"/>
    <path stroke="null" d="m577.011347,1429.513799c-1.39165,0.00004 -1.46875,1.5 -1.46875,1.5l0,10.9375c0,0 0.0771,1.49996 1.46875,1.5c1.39131,0.00004 1.46875,-1.5 1.46875,-1.5l0,-10.9375c0,0 -0.0774,-1.50004 -1.46875,-1.5z" id="svg_35" fill="#ffffff"/>
   </g>
   <use stroke="null" transform="matrix(0.0309756742189385,0.09512925307907924,-0.06001426976613309,0.04909986847380374,42.8120383827607,-26.420531539151487) " id="svg_37" x="-279.646508" y="414.137704" width="744.09448" height="1052.3622" xlink:href="#g3655" fill="#ffffff"/>
   <use stroke="null" id="svg_38" x="690.895054" y="-176.071265" width="744.09448" height="1052.3622" xlink:href="#g3655" transform="matrix(-0.0675366937979956,0,0,0.10705312688915472,90.94717715428699,19.949117175555163) " fill="#ffffff"/>
   <use stroke="null" transform="matrix(0.0309756742189385,0.09512925307907924,-0.06001426976613309,0.04909986847380374,42.473187879701854,-26.747745844675794) " id="svg_39" x="-279.646508" width="744.09448" height="1052.3622" xlink:href="#g3655" y="414.137704" fill="#ffffff"/>
   <g stroke="null" transform="matrix(-0.057676683642094405,-0.05569594902814154,-0.03513694895803586,0.09142392061641039,112.31035496077027,-70.92267257745748) " id="svg_44">
    <rect stroke="null" width="1.254968" height="8.508905" x="-1034.662905" y="1221.04424" transform="translate(-424.64630126953125,212.1778106689453) scale(-1,1) " id="svg_40" fill="#ffffff"/>
    <rect stroke="null" width="1.254968" height="8.508905" x="-1034.662905" y="1221.04424" transform="translate(-424.64630126953125,212.1778106689453) scale(-1,1) " id="svg_41" fill="#ffffff"/>
    <path stroke="null" d="m610.613507,1433.146619a1.2244,1.5369 0 1 1 -2.44879,0a1.2244,1.5369 0 1 1 2.44879,0z" id="svg_42" fill="#ffffff"/>
    <path stroke="null" d="m610.911517,1433.146639a1.52241,1.91097 0 1 1 -3.0448,0a1.52241,1.91097 0 1 1 3.0448,0z" id="svg_43" filter="url(#filter6061)" fill="#ffffff"/>
   </g>
   <rect stroke="null" width="10.135856" height="2.218364" rx="1.109182" ry="1.109182" x="-707.669667" y="-1021.792227" transform="matrix(0.057676683642094405,0.05569594902814154,0.03513694895803586,-0.09142392061641039,102.74137257504945,-27.24387703097508) " id="svg_45" fill="#ffffff"/>
   <use stroke="null" id="svg_46" x="689.220641" y="-175.051194" width="744.09448" height="1052.3622" xlink:href="#g3747" transform="matrix(-0.0675366937979956,0,0,0.10705312688915472,90.94717715428699,19.949117175555163) " fill="#ffffff"/>
   <rect stroke="null" width="13.000721" height="14.285714" rx="2.298097" ry="2.298097" x="678.598767" y="1007.182601" transform="matrix(-0.057676683642094405,-0.05569594902814154,-0.03513694895803586,0.09142392061641039,102.74137257504945,-27.24387703097508) " id="svg_47" fill="#ffffff"/>
   <path stroke="null" d="m26.307068,25.203532c0.009179,0.008863 0.018359,0.01777 0.02594,0.028959c0.022303,0.032806 0.037539,0.076652 0.044728,0.12154c0.004579,0.0299 0.006214,0.062671 0.003586,0.093557c-0.00005,0.000965 -0.001039,0.001885 -0.001093,0.002859c-0.001513,0.014794 -0.001979,0.031417 -0.005262,0.045843c-0.000203,0.000965 -0.000877,0.001874 -0.001094,0.002848c-0.003397,0.01434 -0.008351,0.028153 -0.013572,0.041736c-0.000338,0.000962 -0.00073,0.001895 -0.001094,0.002859l-0.339291,0.882812l-0.001094,0.002845c-0.016695,0.04221 -0.039003,0.074083 -0.06555,0.093396c-0.000803,0.000642 -0.002066,0.000534 -0.002897,0.001112c-0.009063,0.006446 -0.017548,0.009347 -0.027202,0.012906c-0.009138,0.003361 -0.018502,0.007622 -0.027906,0.008308c-0.000607,0.000067 -0.001276,-0.001736 -0.001796,-0.001736c-0.029273,0.001616 -0.059382,-0.006411 -0.08637,-0.032479c-0.000609,-0.000534 -0.001203,-0.001156 -0.001803,-0.001734l-0.812881,-0.784964c-0.073432,-0.070909 -0.097955,-0.220963 -0.053222,-0.337359l1.036262,-0.503577l0.331641,0.320252l-0.000027,0.000016l-0.000002,0z" id="svg_48" fill="#ffffff"/>
   <path stroke="null" d="m30.391847,29.14607c0.073432,0.070911 0.019167,0.419532 -0.119873,0.781311c-0.139042,0.361776 -0.308494,0.595249 -0.381926,0.524338l-0.925521,-0.893736l0.501799,-1.305648l0.925521,0.893736z" id="svg_49" fill="#ffffff"/>
  </g>
  <g stroke="null" id="svg_25" fill="url(#svg_55)" stroke-width="6">
   <g stroke="null" id="svg_1"/>
   <path stroke="null" d="m4.324962,24.149183c-1.969667,1.972548 -1.05917,4.240897 0.859536,2.319381l23.701682,-23.736376l0.626297,-0.627213c0,0 -0.017159,-1.205665 -0.11469,-1.475231c-0.097533,-0.269564 -0.744849,-0.844149 -0.744849,-0.844149l-0.626294,0.62721l-23.701682,23.736378z" id="svg_2" filter="url(#filter3655)" stroke-width="6" fill="#ffffff" opacity="0.7"/>
   <path stroke="null" d="m4.648875,25.047939l0.198356,0.535243l24.109344,-24.144635c0,0 0.107373,-0.107285 0.00983,-0.376825c-0.097562,-0.269586 -0.208183,-0.158418 -0.208183,-0.158418l-24.109347,24.144635z" id="svg_3" stroke-width="6" fill="#ffffff"/>
   <path stroke="null" d="m28.13828,1.524152l0.198356,0.53524l0.619939,-0.620846c0,0 0.107373,-0.107285 0.00983,-0.376825c-0.097562,-0.269586 -0.208183,-0.158418 -0.208183,-0.158418l-0.619941,0.620849z" id="svg_4" stroke-width="6" fill="#ffffff"/>
   <path stroke="null" d="m0.518356,28.678045c-0.06909,0.069191 -0.018034,0.40936 0.112784,0.762365c0.13082,0.353003 0.290251,0.580815 0.359341,0.511623l0.361207,-0.361737c0.003254,-0.003257 0.006409,-0.008543 0.009143,-0.012973c0.001196,-0.000835 0.002187,-0.002558 0.003394,-0.003394c0.006018,-0.004336 0.012219,-0.00842 0.01799,-0.014199l0.893693,-0.895002c0.069088,-0.069189 0.092162,-0.215602 0.050074,-0.329176l-0.320261,-0.864193c-0.04209,-0.113575 -0.132849,-0.149808 -0.201939,-0.080617l-0.893692,0.894999c-0.005733,0.005746 -0.010855,0.013022 -0.015928,0.019766c-0.005001,0.002037 -0.01028,0.006478 -0.014598,0.010804l-0.361208,0.361735l-0.000001,-0.000003z" id="svg_5" fill="#ffffff"/>
   <rect stroke="null" width="25.540682" height="10.497643" x="-488.085406" y="866.518645" transform="matrix(-0.0542659522228054,0.05434538363951152,0.03305911285128609,0.08920699128794173,-50.622485736169615,-25.862701271625454) " id="svg_6" fill="#ffffff"/>
   <rect stroke="null" width="13.000721" height="14.285714" rx="2.298097" ry="2.298097" x="453.458666" y="864.62503" transform="matrix(0.0542659522228054,-0.05434538363951152,0.03305911285128609,0.08920699128794173,-50.622485736169615,-25.862701271625454) " id="svg_7" fill="#ffffff"/>
   <path stroke="null" d="m4.360821,24.829957c-0.069088,0.06919 -0.09113,0.218393 -0.04904,0.331967l0.320259,0.864191c0.04209,0.113575 0.131818,0.147019 0.200908,0.077831l0.764809,-0.765929c0.06909,-0.069191 0.092164,-0.215605 0.050075,-0.329179l-0.97474,-0.491606l-0.312271,0.312726z" id="svg_8" fill="#ffffff"/>
   <g stroke="null" transform="matrix(0.0542659522228054,-0.05434538363951152,0.03305911285128609,0.08920699128794173,-59.62560290890198,-68.48233415885736) " id="svg_11">
    <path stroke="null" d="m351.871239,1286.956228c-1.39165,0.00004 -1.46875,1.5 -1.46875,1.5l0,10.9375c0,0 0.0771,1.49996 1.46875,1.5c1.39131,0.00004 1.46875,-1.5 1.46875,-1.5l0,-10.9375c0,0 -0.0774,-1.50004 -1.46875,-1.5z" id="svg_9" fill="#ffffff"/>
    <path stroke="null" d="m351.871239,1286.956228c-1.39165,0.00004 -1.46875,1.5 -1.46875,1.5l0,10.9375c0,0 0.0771,1.49996 1.46875,1.5c1.39131,0.00004 1.46875,-1.5 1.46875,-1.5l0,-10.9375c0,0 -0.0774,-1.50004 -1.46875,-1.5z" id="svg_10" fill="#ffffff"/>
   </g>
   <use stroke="null" transform="matrix(-0.029143916589672046,0.09282247352155856,0.0564653043511444,0.04790925076992908,-17.673920934533378,-23.717681264848643) " id="svg_12" x="-342.12259" y="497.122472" width="744.09448" height="1052.3622" xlink:href="#g3655" fill="#ffffff"/>
   <use stroke="null" id="svg_13" x="799.192822" y="-195.920955" width="744.09448" height="1052.3622" xlink:href="#g3655" transform="matrix(0.06354288713391745,0,0,0.10445720653149895,-63.337565906043224,21.777551198856923) " fill="#ffffff"/>
   <use stroke="null" transform="matrix(-0.029143916589672046,0.09282247352155856,0.0564653043511444,0.04790925076992908,-17.35510847777408,-24.036960984044555) " id="svg_14" x="-342.12259" width="744.09448" height="1052.3622" xlink:href="#g3655" y="497.122472" fill="#ffffff"/>
   <g stroke="null" transform="matrix(0.0542659522228054,-0.05434538363951152,0.03305911285128609,0.08920699128794173,-59.62560290890198,-68.48233415885736) " id="svg_19">
    <rect stroke="null" width="1.254968" height="8.508905" x="-809.522797" y="1078.48667" transform="translate(-424.64630126953125,212.1778106689453) scale(-1,1) " id="svg_15" fill="#ffffff"/>
    <rect stroke="null" width="1.254968" height="8.508905" x="-809.522797" y="1078.48667" transform="translate(-424.64630126953125,212.1778106689453) scale(-1,1) " id="svg_16" fill="#ffffff"/>
    <path stroke="null" d="m385.473399,1290.589048a1.2244,1.5369 0 1 1 -2.44879,0a1.2244,1.5369 0 1 1 2.44879,0z" id="svg_17" fill="#ffffff"/>
    <path stroke="null" d="m385.771409,1290.589068a1.52241,1.91097 0 1 1 -3.0448,0a1.52241,1.91097 0 1 1 3.0448,0z" id="svg_18" filter="url(#filter6061)" fill="#ffffff"/>
   </g>
   <rect stroke="null" width="10.135856" height="2.218364" rx="1.109182" ry="1.109182" x="-482.529566" y="-879.234656" transform="matrix(-0.0542659522228054,0.05434538363951152,-0.03305911285128609,-0.08920699128794173,-50.622485736169615,-25.862701271625454) " id="svg_20" fill="#ffffff"/>
   <use stroke="null" id="svg_21" x="797.518409" y="-194.900884" width="744.09448" height="1052.3622" xlink:href="#g3747" transform="matrix(0.06354288713391745,0,0,0.10445720653149895,-63.337565906043224,21.777551198856923) " fill="#ffffff"/>
   <rect stroke="null" width="13.000721" height="14.285714" rx="2.298097" ry="2.298097" x="453.458666" y="864.62503" transform="matrix(0.0542659522228054,-0.05434538363951152,0.03305911285128609,0.08920699128794173,-50.622485736169615,-25.862701271625454) " id="svg_22" fill="#ffffff"/>
   <path stroke="null" d="m4.36158,24.831109c-0.008635,0.008649 -0.017273,0.01734 -0.024406,0.028257c-0.020983,0.03201 -0.035318,0.074793 -0.042083,0.118593c-0.004307,0.029175 -0.005847,0.061151 -0.003373,0.091288c0.000047,0.000942 0.000978,0.001839 0.001027,0.00279c0.001424,0.014435 0.001862,0.030656 0.004951,0.044731c0.000191,0.000941 0.000826,0.001829 0.00103,0.002779c0.003196,0.013992 0.007857,0.02747 0.012769,0.040723c0.000318,0.00094 0.000687,0.001849 0.00103,0.002791l0.319226,0.861405l0.00103,0.002776c0.015708,0.041186 0.036697,0.072288 0.061674,0.091131c0.000755,0.000627 0.001944,0.000522 0.002726,0.001085c0.008527,0.00629 0.01651,0.00912 0.025592,0.012593c0.008598,0.003279 0.017408,0.007438 0.026257,0.008108c0.000571,0.000064 0.001201,-0.001694 0.001689,-0.001694c0.027542,0.001577 0.055871,-0.006257 0.081263,-0.031691c0.000572,-0.000521 0.001132,-0.001128 0.001695,-0.001691l0.764812,-0.76593c0.069089,-0.069189 0.092162,-0.215604 0.050074,-0.329178l-0.974981,-0.491366l-0.312029,0.312486l0.000025,0.000016l0.000001,0z" id="svg_23" fill="#ffffff"/>
   <path stroke="null" d="m0.518356,28.678045c-0.06909,0.069191 -0.018034,0.40936 0.112784,0.762365c0.13082,0.353003 0.290251,0.580815 0.359341,0.511623l0.87079,-0.872064l-0.472126,-1.273988l-0.870789,0.872064z" id="svg_24" fill="#ffffff"/>
  </g>
 </g>
</svg>