<svg width="507" height="350" xmlns="http://www.w3.org/2000/svg" xmlns:xlink="http://www.w3.org/1999/xlink" style="vector-effect: non-scaling-stroke;" stroke="null">
 <defs stroke="null">
  <filter style="vector-effect: non-scaling-stroke;" stroke="null" id="filter3655" color-interpolation-filters="sRGB" height="5.522816" width="1.060807" y="-2.261408" x="-0.030403">
   <feGaussianBlur style="vector-effect: non-scaling-stroke;" stroke="null" stdDeviation="5.65352" id="feGaussianBlur3657"/>
  </filter>
  <filter style="vector-effect: non-scaling-stroke;" stroke="null" id="filter6061" color-interpolation-filters="sRGB" height="2.148184" width="2.148184" y="-0.574092" x="-0.574092">
   <feGaussianBlur style="vector-effect: non-scaling-stroke;" stroke="null" stdDeviation="0.906126" id="feGaussianBlur6063"/>
  </filter>
  <linearGradient style="vector-effect: non-scaling-stroke;" stroke="null" id="linearGradient3608">
   <stop style="vector-effect: non-scaling-stroke;" stroke="null" stop-color="#81ccfb" offset="0" id="stop3610"/>
   <stop style="vector-effect: non-scaling-stroke;" stroke="null" stop-color="#ffffff" offset="0.3" id="stop3618"/>
   <stop style="vector-effect: non-scaling-stroke;" stroke="null" stop-color="#ffffff" offset="0.7" id="stop3616"/>
   <stop style="vector-effect: non-scaling-stroke;" stroke="null" stop-color="#81ccfb" offset="1" id="stop3612"/>
  </linearGradient>
  <linearGradient style="vector-effect: non-scaling-stroke;" stroke="null" xlink:href="#linearGradient3608" id="svg_55" y2="0.022587" x2="0.002084" y1="0.00092" x1="0.010228"/>
 </defs>
 <g stroke="null">
  <title stroke="null">background</title>
  <rect stroke="null" fill="none" id="canvas_background" height="402" width="582" y="-1" x="-1"/>
 </g>
 <g stroke="null">
  <title stroke="null">Layer 1</title>
  <g stroke="null" id="layer1">
   <g stroke="null" id="g3675"/>
   <path opacity="0.7" fill="#fffcfc" stroke-width="6" filter="url(#filter3655)" id="path3640" d="m77.656898,272.568726c-30.997435,18.883806 -16.668577,40.59937 13.526879,22.204134l373.002928,-227.235411l9.856261,-6.004488c0,0 -0.269999,-11.542213 -1.804906,-14.122832c-1.534908,-2.580619 -11.721972,-8.081302 -11.721972,-8.081302l-9.856261,6.004488l-373.002928,227.235411z"/>
   <path fill="#fffcfc" stroke-width="6" id="path2830" d="m82.754464,281.172794l3.12159,5.12403l379.41847,-231.14379c0,0 1.68977,-1.02707 0.15468,-3.60746c-1.53537,-2.58083 -3.27627,-1.51657 -3.27627,-1.51657l-379.41847,231.14379z"/>
   <path fill="#fffcfc" stroke-width="6" id="path3620" d="m452.416684,55.972564l3.12159,5.12403l9.75625,-5.94356c0,0 1.68977,-1.02707 0.15468,-3.60746c-1.53537,-2.58083 -3.27627,-1.51657 -3.27627,-1.51657l-9.75625,5.94356z"/>
   <path fill="#fffcfc" id="rect2830" d="m17.750804,315.924894c-1.08727,0.66238 -0.28381,3.91891 1.77495,7.29833c2.05876,3.37942 4.5678,5.56031 5.65508,4.89793l5.68447,-3.46301c0.0512,-0.0312 0.10086,-0.0818 0.1439,-0.12419c0.0188,-0.008 0.0344,-0.0245 0.0534,-0.0325c0.0947,-0.0415 0.1923,-0.0806 0.28311,-0.13594l14.0644,-8.5681c1.08727,-0.66238 1.45041,-2.06404 0.78803,-3.15132l-5.04006,-8.27317c-0.66238,-1.08727 -2.09072,-1.43414 -3.178,-0.77177l-14.0644,8.5681c-0.0902,0.055 -0.17081,0.12467 -0.25064,0.18923c-0.0787,0.0195 -0.16178,0.062 -0.22974,0.10342l-5.68447,3.46301l-0.00003,-0.00002z"/>
   <rect fill="#fffcfc" id="rect3691" transform="matrix(-0.85400514,0.52026457,0.52026457,0.85400514,0,0) " y="280.927981" x="76.795422" height="10.497643" width="25.540682"/>
   <rect fill="#fffcfc" id="rect2832" transform="matrix(0.85400514,-0.52026457,0.52026457,0.85400514,0,0) " y="279.034366" x="-111.422162" ry="2.298097" rx="2.298097" height="14.285714" width="13.000721"/>
   <path fill="#fffcfc" id="rect2837" d="m78.221234,279.085994c-1.08727,0.66237 -1.43415,2.09072 -0.77177,3.178l5.04006,8.27317c0.66238,1.08728 2.07446,1.40746 3.16174,0.74509l12.03614,-7.33248c1.08727,-0.66237 1.4504,-2.06403 0.78803,-3.15131l-15.33986,-4.70631l-4.91434,2.99384z"/>
   <g stroke="null" id="g3655" transform="matrix(0.85400514,-0.52026457,0.52026457,0.85400514,-141.68568,-408.01046) ">
    <path fill="#fffcfc" id="rect2842" d="m-213.009585,701.365552c-1.39165,0.00004 -1.46875,1.5 -1.46875,1.5l0,10.9375c0,0 0.0771,1.49996 1.46875,1.5c1.39131,0.00004 1.46875,-1.5 1.46875,-1.5l0,-10.9375c0,0 -0.0774,-1.50004 -1.46875,-1.5z"/>
    <path fill="#fffcfc" id="path3635" d="m-213.009585,701.365552c-1.39165,0.00004 -1.46875,1.5 -1.46875,1.5l0,10.9375c0,0 0.0771,1.49996 1.46875,1.5c1.39131,0.00004 1.46875,-1.5 1.46875,-1.5l0,-10.9375c0,0 -0.0774,-1.50004 -1.46875,-1.5z"/>
   </g>
   <use fill="#fffcfc" stroke="null" xlink:href="#g3655" height="1052.3622" width="744.09448" y="0" x="0" id="use3663" transform="matrix(-0.45864955,0.88861723,0.88861723,0.45864955,523.11759,-318.68607) "/>
   <use fill="#fffcfc" stroke="null" xlink:href="#g3655" height="1052.3622" width="744.09448" y="-3.056561" x="5.01728" id="use3667"/>
   <use fill="#fffcfc" stroke="null" y="0" xlink:href="#g3655" height="1052.3622" width="744.09448" x="0" id="use3669" transform="matrix(-0.45864955,0.88861723,0.88861723,0.45864955,528.13487,-321.74263) "/>
   <g stroke="null" id="g3747" transform="matrix(0.85400514,-0.52026457,0.52026457,0.85400514,-141.68568,-408.01046) ">
    <rect fill="#fffcfc" id="rect3715" transform="translate(-424.64630126953125,212.1778106689453) scale(-1,1) " y="492.895991" x="-244.641966" height="8.508905" width="1.254968"/>
    <rect fill="#fffcfc" id="rect5553" transform="translate(-424.64630126953125,212.1778106689453) scale(-1,1) " y="492.895991" x="-244.641966" height="8.508905" width="1.254968"/>
    <path fill="#fffcfc" id="path3729" d="m-179.407428,704.998364a1.224396,1.536896 0 1 1 -2.448785,0a1.224396,1.536896 0 1 1 2.448785,0z"/>
    <path fill="#fffcfc" filter="url(#filter6061)" id="path6039" d="m-179.109417,704.998388a1.522406,1.910967 0 1 1 -3.044804,0a1.522406,1.910967 0 1 1 3.044804,0z"/>
   </g>
   <rect fill="#fffcfc" id="rect3743" transform="matrix(-0.85400514,0.52026457,-0.52026457,-0.85400514,0,0) " y="-293.643992" x="82.351262" ry="1.109182" rx="1.109182" height="2.218364" width="10.135856"/>
   <use fill="#fffcfc" stroke="null" xlink:href="#g3747" height="1052.3622" width="744.09448" y="-2.036491" x="3.342866" id="use3751"/>
   <rect fill="#fffcfc" id="rect3852" transform="matrix(0.85400514,-0.52026457,0.52026457,0.85400514,0,0) " y="279.034366" x="-111.422162" ry="2.298097" rx="2.298097" height="14.285714" width="13.000721"/>
   <path fill="#fffcfc" id="rect3894" d="m78.233174,279.097014c-0.13591,0.0828 -0.27182,0.16599 -0.38408,0.27052c-0.33023,0.30644 -0.55582,0.71602 -0.66228,1.13531c-0.0678,0.2793 -0.092,0.58543 -0.0531,0.87394c0.00074,0.009 0.0154,0.0176 0.0162,0.0267c0.0224,0.1382 0.0293,0.29348 0.0779,0.42823c0.003,0.009 0.013,0.0175 0.0162,0.0266c0.0503,0.13396 0.12367,0.26298 0.20097,0.38986c0.005,0.009 0.0108,0.0177 0.0162,0.0267l5.02381,8.24649l0.0162,0.0266c0.24722,0.39428 0.57752,0.69202 0.97058,0.87241c0.0119,0.006 0.0306,0.005 0.0429,0.0104c0.13421,0.0602 0.25984,0.0873 0.40277,0.12055c0.13529,0.0314 0.27395,0.0712 0.4132,0.0776c0.009,0.00063 0.0189,-0.0162 0.0266,-0.0162c0.43342,0.0151 0.87924,-0.0599 1.27886,-0.30339c0.009,-0.005 0.0178,-0.0108 0.0267,-0.0162l12.03613,-7.33248c1.08728,-0.66237 1.45041,-2.06403 0.78803,-3.15131l-15.34366,-4.70399l-4.91053,2.99152l0.0004,0.00014z"/>
   <path fill="#fffcfc" id="path3977" d="m17.750804,315.924894c-1.08727,0.66238 -0.28381,3.91891 1.77495,7.29833c2.05876,3.37942 4.5678,5.56031 5.65508,4.89793l13.70397,-8.34853l-7.43003,-12.19626l-13.70397,8.34853z"/>
   <ellipse stroke="#000000" id="svg_56" cy="220.453125" cx="191.5" stroke-opacity="0" stroke-width="1.5" fill="#fffcfc"/>
  </g>
  <g stroke-width="6" fill="url(#svg_55)" id="svg_50">
   <g stroke="null" id="svg_26"/>
   <path opacity="0.7" fill="#ffffff" stroke-width="6" filter="url(#filter3655)" id="svg_27" d="m401.447395,272.191127c28.923811,18.998481 15.553506,40.845928 -12.621975,22.338975l-348.050233,-228.615401l-9.196908,-6.040955c0,0 0.251938,-11.612305 1.684167,-14.208597c1.432229,-2.596292 10.937808,-8.130377 10.937808,-8.130377l9.196908,6.040945l348.050233,228.615411z"/>
   <path fill="#ffffff" stroke-width="6" id="svg_28" d="m396.690846,280.847439l-2.912766,5.155148l-354.036594,-232.547517c0,0 -1.57673,-1.033307 -0.144332,-3.629368c1.432659,-2.596503 3.057098,-1.52578 3.057098,-1.52578l354.036594,232.547517z"/>
   <path fill="#ffffff" stroke-width="6" id="svg_29" d="m51.757839,54.279577l-2.912766,5.155148l-9.103588,-5.979655c0,0 -1.57673,-1.033307 -0.144332,-3.629368c1.432659,-2.596503 3.057098,-1.52578 3.057098,-1.52578l9.103588,5.979655z"/>
   <path fill="#ffffff" id="svg_30" d="m457.34597,315.810587c1.014535,0.666403 0.264824,3.942709 -1.656212,7.342652c-1.921036,3.399943 -4.262229,5.594078 -5.276773,4.927675l-5.304197,-3.484041c-0.047775,-0.031389 -0.094113,-0.082297 -0.134274,-0.124944c-0.017542,-0.008049 -0.032099,-0.024649 -0.049828,-0.032697c-0.088365,-0.041752 -0.179436,-0.081089 -0.264171,-0.136766l-13.123537,-8.620134c-1.014535,-0.666403 -1.353382,-2.076575 -0.735313,-3.170458l4.702896,-8.323413c0.618069,-1.093873 1.950858,-1.442849 2.965402,-0.776457l13.123537,8.620134c0.084166,0.055334 0.159383,0.125427 0.233873,0.190379c0.073435,0.019618 0.150957,0.062377 0.214371,0.104048l5.304197,3.484041l0.000028,-0.00002z"/>
   <rect fill="#ffffff" id="svg_31" transform="matrix(0.7968749423527364,0.5234241154381222,-0.4854605432783708,0.8591914782590514,574.7765514706165,-57.72679028727572) " y="384.443672" x="13.279221" height="10.497643" width="25.540682"/>
   <rect fill="#ffffff" id="svg_32" transform="matrix(-0.7968749423527364,-0.5234241154381222,-0.4854605432783708,0.8591914782590514,574.7765514706165,-57.72679028727572) " y="382.550057" x="-47.905961" ry="2.298097" rx="2.298097" height="14.285714" width="13.000721"/>
   <path fill="#ffffff" id="svg_33" d="m400.920817,278.747966c1.014535,0.666393 1.33821,2.103417 0.720141,3.1973l-4.702896,8.323413c-0.618069,1.093883 -1.935685,1.416007 -2.95023,0.749615l-11.230961,-7.37701c-1.014535,-0.666393 -1.353373,-2.076565 -0.735313,-3.170448l14.313673,-4.734891l4.585586,3.012021z"/>
   <g stroke="null" id="svg_36" transform="matrix(-0.7968749423527364,-0.5234241154381222,-0.4854605432783708,0.8591914782590514,706.9839150963298,-468.21508111015703) ">
    <path fill="#ffffff" id="svg_34" d="m-149.493386,804.881241c-1.39165,0.00004 -1.46875,1.5 -1.46875,1.5l0,10.9375c0,0 0.0771,1.49996 1.46875,1.5c1.39131,0.00004 1.46875,-1.5 1.46875,-1.5l0,-10.9375c0,0 -0.0774,-1.50004 -1.46875,-1.5z"/>
    <path fill="#ffffff" id="svg_35" d="m-149.493386,804.881241c-1.39165,0.00004 -1.46875,1.5 -1.46875,1.5l0,10.9375c0,0 0.0771,1.49996 1.46875,1.5c1.39131,0.00004 1.46875,-1.5 1.46875,-1.5l0,-10.9375c0,0 -0.0774,-1.50004 -1.46875,-1.5z"/>
   </g>
   <use fill="#ffffff" stroke="null" xlink:href="#g3655" height="1052.3622" width="744.09448" y="-23.91194" x="138.782931" id="svg_37" transform="matrix(0.42796736998135454,0.8940137660648783,-0.8291715948336075,0.4614349099436904,86.653846055808,-378.34822774591623) "/>
   <use fill="#ffffff" stroke="null" transform="matrix(-0.9331032156934517,0,0,1.0060729590679647,574.7765514706165,-57.72679028727572) " xlink:href="#g3655" height="1052.3622" width="744.09448" y="109.301142" x="-79.884011" id="svg_38"/>
   <use fill="#ffffff" stroke="null" y="-23.91194" xlink:href="#g3655" height="1052.3622" width="744.09448" x="138.782931" id="svg_39" transform="matrix(0.42796736998135454,0.8940137660648783,-0.8291715948336075,0.4614349099436904,81.97220595377348,-381.423350109685) "/>
   <g stroke="null" id="svg_44" transform="matrix(-0.7968749423527364,-0.5234241154381222,-0.4854605432783708,0.8591914782590514,706.9839150963298,-468.21508111015703) ">
    <rect fill="#ffffff" id="svg_40" transform="translate(-424.64630126953125,212.1778106689453) scale(-1,1) " y="596.411685" x="-308.158167" height="8.508905" width="1.254968"/>
    <rect fill="#ffffff" id="svg_41" transform="translate(-424.64630126953125,212.1778106689453) scale(-1,1) " y="596.411685" x="-308.158167" height="8.508905" width="1.254968"/>
    <path fill="#ffffff" id="svg_42" d="m-115.891226,808.514061a1.2244,1.5369 0 1 1 -2.44879,0a1.2244,1.5369 0 1 1 2.44879,0z"/>
    <path fill="#ffffff" filter="url(#filter6061)" id="svg_43" d="m-115.593216,808.514081a1.52241,1.91097 0 1 1 -3.0448,0a1.52241,1.91097 0 1 1 3.0448,0z"/>
   </g>
   <rect fill="#ffffff" id="svg_45" transform="matrix(0.7968749423527364,0.5234241154381222,0.4854605432783708,-0.8591914782590514,574.7765514706165,-57.72679028727572) " y="-397.159683" x="18.835061" ry="1.109182" rx="1.109182" height="2.218364" width="10.135856"/>
   <use fill="#ffffff" stroke="null" transform="matrix(-0.9331032156934517,0,0,1.0060729590679647,574.7765514706165,-57.72679028727572) " xlink:href="#g3747" height="1052.3622" width="744.09448" y="110.321212" x="-81.558425" id="svg_46"/>
   <rect fill="#ffffff" id="svg_47" transform="matrix(-0.7968749423527364,-0.5234241154381222,-0.4854605432783708,0.8591914782590514,574.7765514706165,-57.72679028727572) " y="382.550057" x="-47.905961" ry="2.298097" rx="2.298097" height="14.285714" width="13.000721"/>
   <path fill="#ffffff" id="svg_48" d="m400.909676,278.759053c0.126818,0.083303 0.253636,0.166998 0.358386,0.272163c0.308139,0.308301 0.518637,0.720368 0.617976,1.142205c0.063264,0.280996 0.085845,0.588985 0.049548,0.879247c-0.00069,0.009055 -0.01437,0.017707 -0.015116,0.026862c-0.020902,0.139039 -0.02734,0.295262 -0.072689,0.430831c-0.002799,0.009055 -0.01213,0.017606 -0.015116,0.026762c-0.046935,0.134774 -0.115397,0.264577 -0.187526,0.392228c-0.004666,0.009055 -0.010078,0.017807 -0.015116,0.026862l-4.687733,8.296571l-0.015116,0.026762c-0.230682,0.396674 -0.538886,0.696223 -0.905651,0.877708c-0.011104,0.006036 -0.028553,0.00503 -0.04003,0.010463c-0.125232,0.060566 -0.242458,0.08783 -0.375826,0.121282c-0.12624,0.031591 -0.255624,0.071632 -0.385558,0.078071c-0.008398,0.000634 -0.017636,-0.016298 -0.024821,-0.016298c-0.404426,0.015192 -0.820422,-0.060264 -1.193308,-0.305232c-0.008398,-0.00503 -0.016609,-0.010866 -0.024914,-0.016298l-11.230952,-7.37701c-1.014544,-0.666393 -1.353382,-2.076565 -0.735313,-3.170448l14.317218,-4.732557l4.582031,3.009687l-0.000373,0.000141z"/>
   <path fill="#ffffff" id="svg_49" d="m457.34597,315.810587c1.014535,0.666403 0.264824,3.942709 -1.656212,7.342652c-1.921036,3.399943 -4.262229,5.594078 -5.276773,4.927675l-12.787218,-8.39923l6.932985,-12.270327l12.787218,8.39923z"/>
  </g>
 </g>
</svg>