<svg width="507" height="350" xmlns="http://www.w3.org/2000/svg" xmlns:xlink="http://www.w3.org/1999/xlink" style="vector-effect: non-scaling-stroke;" stroke="null">
 <defs stroke="null">
  <filter style="vector-effect: non-scaling-stroke;" stroke="null" id="filter3655" color-interpolation-filters="sRGB" height="5.522816" width="1.060807" y="-2.261408" x="-0.030403">
   <feGaussianBlur style="vector-effect: non-scaling-stroke;" stroke="null" stdDeviation="5.65352" id="feGaussianBlur3657"/>
  </filter>
  <filter style="vector-effect: non-scaling-stroke;" stroke="null" id="filter6061" color-interpolation-filters="sRGB" height="2.148184" width="2.148184" y="-0.574092" x="-0.574092">
   <feGaussianBlur style="vector-effect: non-scaling-stroke;" stroke="null" stdDeviation="0.906126" id="feGaussianBlur6063"/>
  </filter>
  <linearGradient style="vector-effect: non-scaling-stroke;" stroke="null" id="linearGradient3608">
   <stop style="vector-effect: non-scaling-stroke;" stroke="null" stop-color="#81ccfb" offset="0" id="stop3610"/>
   <stop style="vector-effect: non-scaling-stroke;" stroke="null" stop-color="#ffffff" offset="0.3" id="stop3618"/>
   <stop style="vector-effect: non-scaling-stroke;" stroke="null" stop-color="#ffffff" offset="0.7" id="stop3616"/>
   <stop style="vector-effect: non-scaling-stroke;" stroke="null" stop-color="#81ccfb" offset="1" id="stop3612"/>
  </linearGradient>
  <linearGradient style="vector-effect: non-scaling-stroke;" stroke="null" xlink:href="#linearGradient3608" id="svg_55" y2="0.022587" x2="0.002084" y1="0.00092" x1="0.010228"/>
 </defs>
 <g stroke="null">
  <title stroke="null">background</title>
  <rect stroke="null" fill="none" id="canvas_background" height="402" width="582" y="-1" x="-1"/>
 </g>
 <g stroke="null">
  <title stroke="null">Layer 1</title>
  <g stroke="null" id="layer1">
   <g stroke="null" id="g3675"/>
   <path stroke="null" opacity="0.7" fill="#fffcfc" stroke-width="6" filter="url(#filter3655)" id="path3640" d="m81.418781,170.273197c-11.370725,8.807928 -6.1145,18.936666 4.962037,10.356621l136.827892,-105.988867l3.615552,-2.800659c0,0 -0.099043,-5.383607 -0.66209,-6.587279c-0.563047,-1.203672 -4.299947,-3.769342 -4.299947,-3.769342l-3.615552,2.800659l-136.827892,105.988867z"/>
   <path stroke="null" fill="#fffcfc" stroke-width="6" id="path2830" d="m77.450744,179.286371l1.145086,2.389989l139.181292,-107.811842c0,0 0.619855,-0.479054 0.056741,-1.682619c-0.563217,-1.20377 -1.201827,-0.70737 -1.201827,-0.70737l-139.181292,107.811842z"/>
   <path stroke="null" fill="#fffcfc" stroke-width="6" id="path3620" d="m218.891137,69.246769l1.145086,2.389989l3.578865,-2.77224c0,0 0.619855,-0.479054 0.056741,-1.682619c-0.563217,-1.20377 -1.201827,-0.70737 -1.201827,-0.70737l-3.578865,2.77224z"/>
   <path stroke="null" fill="#fffcfc" id="rect2830" d="m59.443552,190.49571c-0.398841,0.308952 -0.104109,1.827888 0.651101,3.404143c0.755211,1.576255 1.675597,2.593482 2.074441,2.28453l2.085222,-1.615243c0.018782,-0.014553 0.036998,-0.038154 0.052787,-0.057926c0.006896,-0.003731 0.012619,-0.011427 0.019589,-0.015159c0.034739,-0.019357 0.070541,-0.037594 0.103853,-0.063406l5.159215,-3.996398c0.398841,-0.308952 0.532051,-0.962725 0.289071,-1.469863l-1.848835,-3.858835c-0.242979,-0.507133 -0.766934,-0.668922 -1.165779,-0.359975l-5.159215,3.996398c-0.033088,0.025654 -0.062658,0.05815 -0.091942,0.088262c-0.028869,0.009095 -0.059345,0.028919 -0.084275,0.048238l-2.085222,1.615243l-0.000011,-0.000009z"/>
   <rect stroke="null" fill="#fffcfc" id="rect3691" transform="matrix(-0.3132729369499056,0.24266575289876588,0.19084757479899914,0.3983315647988791,354.2001014907532,-95.1726794098016) " y="106.888432" x="932.448696" height="10.497643" width="25.540682"/>
   <rect stroke="null" fill="#fffcfc" id="rect2832" transform="matrix(0.3132729369499056,-0.24266575289876588,0.19084757479899914,0.3983315647988791,354.2001014907532,-95.1726794098016) " y="104.994817" x="-967.075436" ry="2.298097" rx="2.298097" height="14.285714" width="13.000721"/>
   <path stroke="null" fill="#fffcfc" id="rect2837" d="m81.625795,173.31303c-0.398841,0.308948 -0.526086,0.97517 -0.283107,1.482307l1.848835,3.858835c0.242979,0.507137 0.76097,0.656478 1.159815,0.347531l4.415192,-3.420071c0.398841,-0.308948 0.532047,-0.962721 0.289071,-1.469858l-5.627089,-2.195153l-1.802717,1.39641z"/>
   <g stroke="null" id="g3655" transform="matrix(0.3132729369499056,-0.24266575289876588,0.19084757479899914,0.3983315647988791,302.2258369127385,-285.4800175905887) ">
    <path stroke="null" fill="#fffcfc" id="rect2842" d="m-1068.662855,527.326016c-1.39165,0.00004 -1.46875,1.5 -1.46875,1.5l0,10.9375c0,0 0.0771,1.49996 1.46875,1.5c1.39131,0.00004 1.46875,-1.5 1.46875,-1.5l0,-10.9375c0,0 -0.0774,-1.50004 -1.46875,-1.5z"/>
    <path stroke="null" fill="#fffcfc" id="path3635" d="m-1068.662855,527.326016c-1.39165,0.00004 -1.46875,1.5 -1.46875,1.5l0,10.9375c0,0 0.0771,1.49996 1.46875,1.5c1.39131,0.00004 1.46875,-1.5 1.46875,-1.5l0,-10.9375c0,0 -0.0774,-1.50004 -1.46875,-1.5z"/>
   </g>
   <use stroke="null" fill="#fffcfc" xlink:href="#g3655" height="1052.3622" width="744.09448" y="-32.029717" x="-10.00779" id="use3663" transform="matrix(-0.16824546461073117,0.41447559874539563,0.3259696182465478,0.21392680721547142,554.8511930614288,-232.81665705928637) "/>
   <use stroke="null" transform="matrix(0.36682792910345424,0,0,0.466427596441491,209.356846129249,-41.87757638526662) " fill="#fffcfc" xlink:href="#g3655" height="1052.3622" width="744.09448" y="-117.318889" x="399.870681" id="use3667"/>
   <use stroke="null" fill="#fffcfc" y="-32.029717" xlink:href="#g3655" height="1052.3622" width="744.09448" x="-10.00779" id="use3669" transform="matrix(-0.16824546461073117,0.41447559874539563,0.3259696182465478,0.21392680721547142,556.6916714935608,-234.24232099346568) "/>
   <g stroke="null" id="g3747" transform="matrix(0.3132729369499056,-0.24266575289876588,0.19084757479899914,0.3983315647988791,302.2258369127385,-285.4800175905887) ">
    <rect stroke="null" fill="#fffcfc" id="rect3715" transform="translate(-424.64630126953125,212.1778106689453) scale(-1,1) " y="318.856456" x="611.011304" height="8.508905" width="1.254968"/>
    <rect stroke="null" fill="#fffcfc" id="rect5553" transform="translate(-424.64630126953125,212.1778106689453) scale(-1,1) " y="318.856456" x="611.011304" height="8.508905" width="1.254968"/>
    <path stroke="null" fill="#fffcfc" id="path3729" d="m-1035.060698,530.958829a1.224396,1.536896 0 1 1 -2.448785,0a1.224396,1.536896 0 1 1 2.448785,0z"/>
    <path stroke="null" fill="#fffcfc" filter="url(#filter6061)" id="path6039" d="m-1034.762687,530.958853a1.522406,1.910967 0 1 1 -3.044804,0a1.522406,1.910967 0 1 1 3.044804,0z"/>
   </g>
   <rect stroke="null" fill="#fffcfc" id="rect3743" transform="matrix(-0.3132729369499056,0.24266575289876588,-0.19084757479899914,-0.3983315647988791,354.2001014907532,-95.1726794098016) " y="-119.604443" x="938.004536" ry="1.109182" rx="1.109182" height="2.218364" width="10.135856"/>
   <use stroke="null" transform="matrix(0.36682792910345424,0,0,0.466427596441491,209.356846129249,-41.87757638526662) " fill="#fffcfc" xlink:href="#g3747" height="1052.3622" width="744.09448" y="-116.298819" x="398.196267" id="use3751"/>
   <rect stroke="null" fill="#fffcfc" id="rect3852" transform="matrix(0.3132729369499056,-0.24266575289876588,0.19084757479899914,0.3983315647988791,354.2001014907532,-95.1726794098016) " y="104.994817" x="-967.075436" ry="2.298097" rx="2.298097" height="14.285714" width="13.000721"/>
   <path stroke="null" fill="#fffcfc" id="rect3894" d="m81.630175,173.31817c-0.049856,0.03862 -0.099711,0.077422 -0.140891,0.126178c-0.121138,0.142932 -0.20389,0.333971 -0.242943,0.52954c-0.024871,0.130273 -0.033748,0.273061 -0.019479,0.40763c0.000271,0.004198 0.005649,0.008209 0.005943,0.012454c0.008217,0.06446 0.010748,0.136887 0.028576,0.199738c0.0011,0.004198 0.004769,0.008162 0.005943,0.012407c0.018451,0.062483 0.045366,0.122661 0.073721,0.181841c0.001834,0.004198 0.003962,0.008256 0.005943,0.012454l1.842874,3.846391l0.005943,0.012407c0.090687,0.183903 0.21185,0.322777 0.356036,0.406916c0.004365,0.002799 0.011225,0.002332 0.015737,0.004851c0.049232,0.028079 0.095317,0.040719 0.147747,0.056228c0.049628,0.014646 0.100493,0.03321 0.151573,0.036195c0.003301,0.000294 0.006933,-0.007556 0.009758,-0.007556c0.158991,0.007043 0.32253,-0.027939 0.469122,-0.141509c0.003301,-0.002332 0.00653,-0.005037 0.009794,-0.007556l4.415189,-3.420071c0.398845,-0.308948 0.532051,-0.962721 0.289071,-1.469858l-5.628483,-2.194071l-1.80132,1.395327l0.000147,0.000065z"/>
   <path stroke="null" fill="#fffcfc" id="path3977" d="m59.443552,190.49571c-0.398841,0.308952 -0.104109,1.827888 0.651101,3.404143c0.755211,1.576255 1.675597,2.593482 2.074441,2.28453l5.026999,-3.893985l-2.725543,-5.688672l-5.026999,3.893985z"/>
   <ellipse stroke="#000000" id="svg_56" cy="145.965042" cx="123.17961" stroke-opacity="0" stroke-width="1.5" fill="#fffcfc"/>
  </g>
  <g stroke="null" stroke-width="6" fill="url(#svg_55)" id="svg_50">
   <g stroke="null" id="svg_26"/>
   <path stroke="null" opacity="0.7" fill="#ffffff" stroke-width="6" filter="url(#filter3655)" id="svg_27" d="m210.937212,167.410407c11.76426,8.781225 6.326119,18.879262 -5.13377,10.325224l-141.563414,-105.66757l-3.740683,-2.79217c0,0 0.102471,-5.367285 0.685006,-6.567309c0.582535,-1.200024 4.448764,-3.757915 4.448764,-3.757915l3.740683,2.792165l141.563414,105.667574z"/>
   <path stroke="null" fill="#ffffff" stroke-width="6" id="svg_28" d="m209.002568,171.411413l-1.184717,2.382744l-143.998263,-107.48502c0,0 -0.641308,-0.477602 -0.058705,-1.677518c0.582709,-1.200121 1.243422,-0.705226 1.243422,-0.705226l143.998263,107.48502z"/>
   <path stroke="null" fill="#ffffff" stroke-width="6" id="svg_29" d="m68.707032,66.69023l-1.184717,2.382744l-3.702727,-2.763837c0,0 -0.641308,-0.477602 -0.058705,-1.677518c0.582709,-1.200121 1.243422,-0.705226 1.243422,-0.705226l3.702727,2.763837z"/>
   <path stroke="null" fill="#ffffff" id="svg_30" d="m233.672991,187.571614c0.412645,0.308016 0.107713,1.822347 -0.673635,3.393823c-0.781348,1.571476 -1.733588,2.58562 -2.146236,2.277604l-2.157391,-1.610347c-0.019432,-0.014508 -0.038279,-0.038038 -0.054613,-0.05775c-0.007135,-0.00372 -0.013056,-0.011393 -0.020267,-0.015113c-0.035941,-0.019298 -0.072982,-0.03748 -0.107447,-0.063214l-5.337772,-3.984284c-0.412645,-0.308016 -0.550465,-0.959807 -0.299076,-1.465407l1.912822,-3.847137c0.251389,-0.505595 0.793478,-0.666895 1.206126,-0.358884l5.337772,3.984284c0.034233,0.025576 0.064826,0.057973 0.095124,0.087995c0.029869,0.009068 0.061399,0.028831 0.087192,0.048092l2.157391,1.610347l0.000011,-0.000009z"/>
   <rect stroke="null" fill="#ffffff" id="svg_31" transform="matrix(0.32411510430839274,0.24193013159881513,-0.19745268204534586,0.3971240553748731,201.10950003025133,-76.23403927374673) " y="441.735554" x="296.014534" height="10.497643" width="25.540682"/>
   <rect stroke="null" fill="#ffffff" id="svg_32" transform="matrix(-0.32411510430839274,-0.24193013159881513,-0.19745268204534586,0.3971240553748731,201.10950003025133,-76.23403927374673) " y="439.841939" x="-330.641274" ry="2.298097" rx="2.298097" height="14.285714" width="13.000721"/>
   <path stroke="null" fill="#ffffff" id="svg_33" d="m210.723036,170.441022c0.412645,0.308011 0.544294,0.972213 0.292905,1.477813l-1.912822,3.847137c-0.251389,0.5056 -0.787307,0.654488 -1.199955,0.346477l-4.567999,-3.409703c-0.412645,-0.308011 -0.550461,-0.959802 -0.299076,-1.465402l5.821839,-2.188498l1.865108,1.392176z"/>
   <g stroke="null" id="svg_36" transform="matrix(-0.32411510430839274,-0.24193013159881513,-0.19745268204534586,0.3971240553748731,254.88255923245413,-265.9644763886421) ">
    <path stroke="null" fill="#ffffff" id="svg_34" d="m-432.228696,862.173127c-1.39165,0.00004 -1.46875,1.5 -1.46875,1.5l0,10.9375c0,0 0.0771,1.49996 1.46875,1.5c1.39131,0.00004 1.46875,-1.5 1.46875,-1.5l0,-10.9375c0,0 -0.0774,-1.50004 -1.46875,-1.5z"/>
    <path stroke="null" fill="#ffffff" id="svg_35" d="m-432.228696,862.173127c-1.39165,0.00004 -1.46875,1.5 -1.46875,1.5l0,10.9375c0,0 0.0771,1.49996 1.46875,1.5c1.39131,0.00004 1.46875,-1.5 1.46875,-1.5l0,-10.9375c0,0 -0.0774,-1.50004 -1.46875,-1.5z"/>
   </g>
   <use stroke="null" fill="#ffffff" xlink:href="#g3655" height="1052.3622" width="744.09448" y="-122.081546" x="410.047278" id="svg_37" transform="matrix(0.1740683279016885,0.41321915000837867,-0.3372512092745543,0.21327830566905095,2.5740295664494184,-224.4274149130089) "/>
   <use stroke="null" fill="#ffffff" transform="matrix(-0.3795235990129903,0,0,0.46501365949023815,261.4358497655113,-20.07986351538492) " xlink:href="#g3655" height="1052.3622" width="744.09448" y="184.567748" x="-132.581657" id="svg_38"/>
   <use stroke="null" fill="#ffffff" y="-122.081546" xlink:href="#g3655" height="1052.3622" width="744.09448" x="410.047278" id="svg_39" transform="matrix(0.1740683279016885,0.41321915000837867,-0.3372512092745543,0.21327830566905095,0.6698534035934927,-225.8487570640604) "/>
   <g stroke="null" id="svg_44" transform="matrix(-0.32411510430839274,-0.24193013159881513,-0.19745268204534586,0.3971240553748731,254.88255923245413,-265.9644763886421) ">
    <rect stroke="null" fill="#ffffff" id="svg_40" transform="translate(-424.64630126953125,212.1778106689453) scale(-1,1) " y="653.703571" x="-25.422858" height="8.508905" width="1.254968"/>
    <rect stroke="null" fill="#ffffff" id="svg_41" transform="translate(-424.64630126953125,212.1778106689453) scale(-1,1) " y="653.703571" x="-25.422858" height="8.508905" width="1.254968"/>
    <path stroke="null" fill="#ffffff" id="svg_42" d="m-398.626536,865.805947a1.2244,1.5369 0 1 1 -2.44879,0a1.2244,1.5369 0 1 1 2.44879,0z"/>
    <path stroke="null" fill="#ffffff" filter="url(#filter6061)" id="svg_43" d="m-398.328526,865.805967a1.52241,1.91097 0 1 1 -3.0448,0a1.52241,1.91097 0 1 1 3.0448,0z"/>
   </g>
   <rect stroke="null" fill="#ffffff" id="svg_45" transform="matrix(0.32411510430839274,0.24193013159881513,0.19745268204534586,-0.3971240553748731,201.10950003025133,-76.23403927374673) " y="-454.451565" x="301.570374" ry="1.109182" rx="1.109182" height="2.218364" width="10.135856"/>
   <use stroke="null" fill="#ffffff" transform="matrix(-0.3795235990129903,0,0,0.46501365949023815,261.4358497655113,-20.07986351538492) " xlink:href="#g3747" height="1052.3622" width="744.09448" y="185.587819" x="-134.25607" id="svg_46"/>
   <rect stroke="null" fill="#ffffff" id="svg_47" transform="matrix(-0.32411510430839274,-0.24193013159881513,-0.19745268204534586,0.3971240553748731,201.10950003025133,-76.23403927374673) " y="439.841939" x="-330.641274" ry="2.298097" rx="2.298097" height="14.285714" width="13.000721"/>
   <path stroke="null" fill="#ffffff" id="svg_48" d="m210.718504,170.446147c0.051581,0.038503 0.103162,0.077188 0.145767,0.125795c0.12533,0.142499 0.210947,0.332959 0.251351,0.527935c0.025732,0.129878 0.034916,0.272233 0.020153,0.406394c-0.000281,0.004185 -0.005845,0.008184 -0.006148,0.012416c-0.008501,0.064265 -0.01112,0.136472 -0.029565,0.199133c-0.001139,0.004185 -0.004934,0.008138 -0.006148,0.012369c-0.01909,0.062293 -0.046936,0.122289 -0.076273,0.18129c-0.001898,0.004185 -0.004099,0.008231 -0.006148,0.012416l-1.906654,3.83473l-0.006148,0.012369c-0.093826,0.183346 -0.219182,0.321799 -0.368358,0.405683c-0.004516,0.00279 -0.011613,0.002325 -0.016282,0.004836c-0.050936,0.027994 -0.098615,0.040596 -0.152861,0.056057c-0.051346,0.014601 -0.10397,0.033109 -0.156819,0.036085c-0.003416,0.000293 -0.007173,-0.007533 -0.010095,-0.007533c-0.164493,0.007022 -0.333692,-0.027854 -0.485358,-0.14108c-0.003416,-0.002325 -0.006756,-0.005022 -0.010133,-0.007533l-4.567995,-3.409703c-0.412648,-0.308011 -0.550465,-0.959802 -0.299076,-1.465402l5.823281,-2.18742l1.863662,1.391098l-0.000152,0.000065z"/>
   <path stroke="null" fill="#ffffff" id="svg_49" d="m233.672991,187.571614c0.412645,0.308016 0.107713,1.822347 -0.673635,3.393823c-0.781348,1.571476 -1.733588,2.58562 -2.146236,2.277604l-5.20098,-3.88218l2.819872,-5.671427l5.20098,3.88218z"/>
  </g>
 </g>
</svg>