<svg width="645.994" height="633.818" xmlns="http://www.w3.org/2000/svg">
 <g>
  <title>background</title>
  <rect x="-1" y="-1" width="647.994" height="635.818" id="canvas_background" fill="none"/>
 </g>

 <g>
  <title>Layer 1</title>
  <path fill="#FFFFFF" d="m27.591,0c0,0 1.235,2.627 2.086,3.477c0.85,0.85 1.699,2.24 1.699,2.24s-2.858,2.704 -3.321,4.79c0,0 -0.309,-5.717 -0.464,-10.507z" id="svg_111"/>
  <g stroke="null" id="svg_28" fill="white">
   <path stroke="null" fill-rule="evenodd" clip-rule="evenodd" d="m177.488996,191.998989c0.374781,-22.127527 -9.518245,-44.90215 -29.679079,-68.355435c-11.2583,-12.377684 -8.899559,-18.241005 7.091093,-17.570235l26.297127,0l16.08286,0l26.657036,0l0,125.544518l43.876137,0l0,-125.544518l42.751794,0l0,-53.243376l-113.284966,0l-16.08286,0l-66.9906,0c-17.171509,0 -27.373879,11.063764 -30.610082,33.183399c-3.236203,22.123581 5.969724,46.385736 27.623733,72.806193c13.132204,13.699496 10.895416,20.217805 -6.719286,19.562817l-74.292879,0l0,53.23943l117.60387,0c19.414246,-4.296875 29.304298,-17.507104 29.676104,-39.622794z" id="svg_1"/>
   <path stroke="null" fill-rule="evenodd" clip-rule="evenodd" d="m560.913663,178.378407l-10.071493,-17.09675c10.446274,-3.294666 18.480268,-7.836175 24.075212,-13.616636c5.603867,-5.768624 9.52122,-12.953757 11.758007,-21.535671c2.245711,-8.581914 2.11781,-20.801769 -0.365858,-36.655622c-3.239178,-10.562659 -8.340362,-18.982798 -15.315452,-25.256473c-6.963191,-6.273675 -15.859776,-10.069445 -26.689755,-11.391257l-87.737401,0l0,170.880696l-43.090881,-170.880696l-66.919214,0l-44.334202,178.787893l48.343763,0l8.503957,-32.196972l40.039094,0l8.489085,32.196972l48.971372,0l1.998832,0l46.725661,0l0,-59.059348l42.745845,59.059348l78.730761,0l0,-53.23943l-65.857334,0l0,0.003946zm-200.08244,-15.108114l19.327987,-70.825448l17.825889,70.825448l-37.153876,0zm184.317846,-35.598172c-2.114835,1.779514 -4.074999,2.663352 -5.880491,2.663352l-33.977161,0l0,-32.93482l33.879004,0c1.4902,0 3.352207,1.096907 5.556276,3.278883c2.201094,2.189868 3.471185,6.707703 3.783503,13.557451c-0.127901,7.185133 -1.252244,11.663511 -3.36113,13.435134z" id="svg_2"/>
   <polygon stroke="null" fill-rule="evenodd" clip-rule="evenodd" points="180.19874485254923,253.09823732093173 167.69113244048867,330.3630969524511 148.9253438094097,253.09823732093173 108.60367206431556,253.09823732093173 92.55354531399871,330.3630969524511 74.07324229331834,253.09823732093173 30.209020614624023,253.09823732093173 71.2743475461316,431.89409151225664 115.14750913234866,431.89409151225664 129.33261510152852,356.1127776316662 146.40593822622805,431.89409151225664 190.28208434512499,431.89409151225664 224.06592094478628,253.09823732093173 " id="svg_3"/>
   <path stroke="null" fill-rule="evenodd" clip-rule="evenodd" d="m504.821453,286.285613c-3.233229,22.123581 5.981622,46.389682 27.632656,72.802247c13.126255,13.703442 10.880544,20.225696 -6.72821,19.570709l-63.094069,0l-10.08934,-17.092804c10.461147,-3.294666 18.492166,-7.844066 24.093059,-13.616636c5.600892,-5.784407 9.515271,-12.957703 11.758007,-21.539617c2.236788,-8.593751 2.120784,-20.805715 -0.377755,-36.659567c-3.233229,-10.558713 -8.331439,-18.986744 -15.306528,-25.252527c-6.963191,-6.27762 -15.862751,-10.069445 -26.698678,-11.395203l-87.734426,0l0,170.880696l-43.084932,-170.880696l-66.922188,0l-44.340151,178.795785l48.352686,0l8.489085,-32.196972l40.050992,0l8.489085,32.196972l48.968398,0l1.995857,0l46.728636,0l0,-59.063294l42.754768,59.063294l1.674616,0l83.254902,0l34.348968,0c19.414246,-4.29293 29.310247,-17.503158 29.679079,-39.622794c0.377755,-22.119636 -9.518245,-44.906096 -29.679079,-68.343598c-11.255325,-12.38163 -8.890636,-18.244951 7.097042,-17.586018l50.336646,-0.2762l0,-53.23943l-91.033093,0.272254c-17.177458,-0.003946 -27.376853,11.063764 -30.616031,33.183399zm-242.272063,77.260896l19.327987,-70.821502l17.816965,70.821502l-37.144952,0zm184.311898,-35.594226c-2.114835,1.767677 -4.072024,2.655461 -5.880491,2.655461l-33.977161,0l0,-32.93482l33.879004,0c1.502098,0 3.352207,1.096907 5.553301,3.29072c2.218941,2.181976 3.477134,6.703757 3.783503,13.553505c-0.124927,7.181187 -1.240346,11.659565 -3.358156,13.435134z" id="svg_4"/>
  </g>
 </g>
</svg>